<svg xmlns="http://www.w3.org/2000/svg" width="15.776" height="14.59" viewBox="0 0 15.776 14.59"><g transform="translate(0.177 0.175)"><path d="M7.424,31.06a.631.631,0,0,0,.326.1.573.573,0,0,0,.326-.1c.267-.178,6.528-4.306,7.239-8.5a5.03,5.03,0,0,0-.928-4.256,3.848,3.848,0,0,0-2.893-1.383,2.806,2.806,0,0,0-1.007.178,7.35,7.35,0,0,0-3.071,2.242,6.273,6.273,0,0,0-2.6-2.024A3.433,3.433,0,0,0,3.7,17.135a3.539,3.539,0,0,0-2.627,1.146,4.976,4.976,0,0,0-1.037,4C.452,26.477,7.138,30.872,7.424,31.06ZM1.953,19.071A2.342,2.342,0,0,1,3.7,18.31a2.223,2.223,0,0,1,.731.119,6.151,6.151,0,0,1,2.489,2.222.574.574,0,0,0,.514.276.6.6,0,0,0,.5-.3,6.26,6.26,0,0,1,2.972-2.439,1.8,1.8,0,0,1,.583-.1,2.671,2.671,0,0,1,1.985.968,3.923,3.923,0,0,1,.662,3.3c-.257,1.5-1.481,3.3-3.545,5.2A28.205,28.205,0,0,1,7.75,29.845a29.636,29.636,0,0,1-3.012-2.4c-2.153-1.975-3.367-3.8-3.516-5.283A3.949,3.949,0,0,1,1.953,19.071Z" transform="translate(0.001 -16.918)"   stroke-width="0.35"/></g></svg>