<svg xmlns="http://www.w3.org/2000/svg" width="18.809" height="24.424" viewBox="0 0 18.809 24.424"><g transform="translate(0)"><path d="M60.147,24.424H71.994a3.445,3.445,0,0,0,3.481-3.439V13.293a3.405,3.405,0,0,0-2.527-3.327V6.274A6.225,6.225,0,0,0,66.773,0h-1.4a6.272,6.272,0,0,0-6.246,6.26.845.845,0,0,0,.842.842.857.857,0,0,0,.842-.856,4.571,4.571,0,0,1,4.562-4.562h1.4a4.535,4.535,0,0,1,4.492,4.59V9.826H60.147a3.481,3.481,0,0,0-3.481,3.481V21A3.442,3.442,0,0,0,60.147,24.424Zm13.644-3.481a1.791,1.791,0,0,1-1.8,1.8H60.147a1.791,1.791,0,0,1-1.8-1.8V13.307a1.791,1.791,0,0,1,1.8-1.8H71.994a1.791,1.791,0,0,1,1.8,1.8v7.636Z" transform="translate(-56.666 0)" /><path d="M224.675,333.018a.845.845,0,0,0,.842-.842v-2.667a.842.842,0,0,0-1.684,0v2.667A.845.845,0,0,0,224.675,333.018Z" transform="translate(-215.551 -312.384)" /></g></svg>