<svg xmlns="http://www.w3.org/2000/svg" width="27.817" height="27.817" viewBox="0 0 27.817 27.817"><path d="M23.742,0H4.075A4.08,4.08,0,0,0,0,4.075V23.742a4.08,4.08,0,0,0,4.075,4.075H23.742a4.08,4.08,0,0,0,4.075-4.075V4.075A4.08,4.08,0,0,0,23.742,0ZM13.963,21.188A7.334,7.334,0,1,1,21.3,13.854,7.343,7.343,0,0,1,13.963,21.188ZM22.112,8.149A2.445,2.445,0,1,1,24.557,5.7,2.448,2.448,0,0,1,22.112,8.149Zm0,0" /><path d="M392.815,90a.815.815,0,1,0,.815.815A.815.815,0,0,0,392.815,90Zm0,0" transform="translate(-370.703 -85.11)" /><path d="M157.7,150a5.7,5.7,0,1,0,5.7,5.7A5.711,5.711,0,0,0,157.7,150Zm0,0" transform="translate(-143.742 -141.851)" /></svg>