<svg xmlns="http://www.w3.org/2000/svg" width="17.4" height="15.66" viewBox="0 0 17.4 15.66"><defs><style>.a{}</style></defs><g transform="translate(0 0)"><path  d="M48.592,15.023a.636.636,0,0,0,.634.634H59.989a.636.636,0,0,0,.634-.634c0-3.51-1.586-6.523-3.816-7.728a3.98,3.98,0,1,0-4.387,0C50.178,8.5,48.592,11.513,48.592,15.023ZM54.607,1.269A2.706,2.706,0,1,1,51.9,3.975,2.712,2.712,0,0,1,54.607,1.269Zm0,6.713c2.474,0,4.5,2.823,4.726,6.407H49.882C50.1,10.8,52.134,7.982,54.607,7.982Z" transform="translate(-48.592)"/></g><path  d="M5.422,15.657H0V14.389H4.767A8.677,8.677,0,0,0,3.248,9.841,4.044,4.044,0,0,0,.041,7.982H0v-1.3H.041a2.707,2.707,0,0,0,0-5.413H0V0H.052A3.98,3.98,0,0,1,4.027,3.975,3.958,3.958,0,0,1,2.24,7.295a6.792,6.792,0,0,1,2.745,3,10.566,10.566,0,0,1,1.072,4.728A.635.635,0,0,1,5.422,15.657Z" transform="translate(11.34 0)"/></svg>