<svg xmlns="http://www.w3.org/2000/svg" width="25.61" height="24.598" viewBox="0 0 25.61 24.598"><path d="M94.844,410.587c0-4.046-5.271-7.327-11.773-7.327-6.442,0-11.673,3.221-11.769,7.216l-.011,0h0c0,6.237,5.319,11.293,11.88,11.293h0c6.447,0,11.674-4.969,11.674-11.1h0C94.841,410.645,94.844,410.616,94.844,410.587Z" transform="translate(-70.307 -397.674)" fill="none" stroke="#fff" stroke-width="1"/><path d="M97.876,435.831a.646.646,0,0,0-.858.217,2.937,2.937,0,0,1-4.915.058.646.646,0,0,0-.863-.2.58.58,0,0,0-.207.82,4.226,4.226,0,0,0,7.071-.084A.581.581,0,0,0,97.876,435.831Z" transform="translate(-81.673 -417.142)" fill="#fff"/><path d="M15.221,8.284h0a2.547,2.547,0,0,1-.595-.07,21.117,21.117,0,0,0-5.047-.621,28.771,28.771,0,0,0-5.594.621,2.8,2.8,0,0,1-.534.052A3.746,3.746,0,0,1,.031,5.157,3.18,3.18,0,0,1,1.342,2.2,8.837,8.837,0,0,1,4.31.664,20.962,20.962,0,0,1,9.563,0a15.047,15.047,0,0,1,4.526.616c2.69,1.033,4.482,2.132,4.482,4.139a3.551,3.551,0,0,1-1.049,2.493A3.3,3.3,0,0,1,15.221,8.284Zm-8.9-6.253a.748.748,0,0,0-.747.747V5.4a.747.747,0,1,0,1.494,0V2.778A.748.748,0,0,0,6.324,2.031Zm6.2,0a.748.748,0,0,0-.747.747V5.4a.747.747,0,0,0,1.493,0V2.778A.747.747,0,0,0,12.523,2.031Z" transform="translate(3.619 8.314)" fill="#fff" stroke="rgba(0,0,0,0)" stroke-miterlimit="10" stroke-width="1"/><ellipse cx="2.266" cy="2.154" rx="2.266" ry="2.154" transform="translate(10.494)" fill="#fff"/><path d="M0,0A3.584,3.584,0,0,1,3.289,3.483,2.448,2.448,0,0,1,2.123,5.856L1.7,2.867Z" transform="translate(3.289 19.189) rotate(180)" fill="#fff"/><path d="M.23,5.871A3.509,3.509,0,0,0,3.61,2.555,3.1,3.1,0,0,0,2.37-.057L1.7,2.989Z" transform="translate(22 13.333)" fill="#fff"/></svg>