<svg xmlns="http://www.w3.org/2000/svg" width="16.224" height="13.4" viewBox="0 0 16.224 13.4"><g transform="translate(0.5 0.5)"><g transform="translate(0 0)"><path d="M.652,55.057H14.571a.613.613,0,1,0,0-1.224H.652a.613.613,0,1,0,0,1.224Z" transform="translate(0 -53.833)"   stroke-width="1"/><path d="M.652,182.557H14.571a.613.613,0,1,0,0-1.224H.652a.613.613,0,1,0,0,1.224Z" transform="translate(0 -175.745)"   stroke-width="1"/><path d="M.652,310.057H14.571a.613.613,0,1,0,0-1.224H.652a.613.613,0,1,0,0,1.224Z" transform="translate(0 -297.656)"   stroke-width="1"/></g></g></svg>