<svg xmlns="http://www.w3.org/2000/svg" width="20.164" height="20.157" viewBox="0 0 20.164 20.157"><defs><style>.a{}.b{stroke-linecap:round;stroke-linejoin:round;stroke-width:0.15px;}</style></defs><g transform="translate(0.079 0.075)"><g class="a" transform="translate(0)"><g transform="translate(0 10.837)"><path class="b" d="M17.714,18.835H14.229a.625.625,0,1,1,0-1.25h3.046l1.213-3.334H1.517L2.73,17.585H5.777a.625.625,0,1,1,0,1.25H2.292a.625.625,0,0,1-.588-.412L.038,13.839A.625.625,0,0,1,.625,13H19.381a.626.626,0,0,1,.588.839L18.3,18.424A.626.626,0,0,1,17.714,18.835Z" transform="translate(0 -13)"/></g><g transform="translate(5.002 13.337)"><path class="b" d="M14.545,22.669a.626.626,0,0,1-.619-.72l.723-4.7h-7.3l.723,4.7a.625.625,0,1,1-1.235.19L6.008,16.72A.624.624,0,0,1,6.625,16h8.753a.626.626,0,0,1,.618.721l-.834,5.418a.624.624,0,0,1-.617.529Z" transform="translate(-6 -16)"/></g><g transform="translate(15.529 6.018)"><path class="b" d="M21.856,13.08a.625.625,0,0,1-.625-.625,4.805,4.805,0,0,0-2.3-4.075.625.625,0,0,1,.651-1.068,6.065,6.065,0,0,1,2.9,5.143A.624.624,0,0,1,21.856,13.08Z" transform="translate(-18.629 -7.22)"/></g><g transform="translate(15 5)"><ellipse class="b" cx="0.5" cy="1" rx="0.5" ry="1" transform="translate(0 0)"/></g><g transform="translate(6.669)"><path class="b" d="M11.334,6.669a3.334,3.334,0,1,1,3.334-3.334A3.338,3.338,0,0,1,11.334,6.669Zm0-5.418a2.084,2.084,0,1,0,2.084,2.084A2.086,2.086,0,0,0,11.334,1.25Z" transform="translate(-8 0)"/></g><g transform="translate(3.126 7.502)"><path class="b" d="M16.879,13.585a.625.625,0,0,1-.625-.625,2.712,2.712,0,0,0-2.709-2.709H7.709A2.712,2.712,0,0,0,5,12.959a.625.625,0,0,1-1.25,0A3.964,3.964,0,0,1,7.709,9h5.835A3.964,3.964,0,0,1,17.5,12.959.625.625,0,0,1,16.879,13.585Z" transform="translate(-3.75 -9)"/></g></g></g></svg>