<svg xmlns="http://www.w3.org/2000/svg" width="15.794" height="20.555" viewBox="0 0 15.794 20.555"><g transform="translate(-8.74 0.001)"><path d="M48.592,19.722a.835.835,0,0,0,.833.833H63.553a.835.835,0,0,0,.833-.833c0-4.608-2.082-8.563-5.01-10.145a5.225,5.225,0,1,0-5.76,0C50.674,11.159,48.592,15.114,48.592,19.722Zm7.9-18.056a3.553,3.553,0,1,1-3.553,3.553A3.56,3.56,0,0,1,56.489,1.665Zm0,8.813c3.248,0,5.912,3.706,6.2,8.411H50.285C50.577,14.184,53.241,10.479,56.489,10.479Z" transform="translate(-39.852 -0.001)" /></g></svg>