<svg xmlns="http://www.w3.org/2000/svg" width="22.138" height="20.477" viewBox="0 0 22.138 20.477"><g transform="translate(0 0)"><path d="M2.538,28.917,2,31.927a.767.767,0,0,0,.314.772.733.733,0,0,0,.458.144.694.694,0,0,0,.366-.092l3.14-1.688c.68,2.944,3.951,5.181,7.864,5.181q.412,0,.824-.039l4.043,2.172a.76.76,0,0,0,.366.092.824.824,0,0,0,.458-.144.767.767,0,0,0,.314-.772l-.536-3.009a5.758,5.758,0,0,0,2.525-4.606c0-2.931-2.578-5.482-6.176-6.15-.34-3.232-3.781-5.8-7.968-5.8C3.585,17.992,0,20.818,0,24.3A5.793,5.793,0,0,0,2.538,28.917Zm18.043,1.021a4.339,4.339,0,0,1-2.237,3.585.8.8,0,0,0-.353.8l.34,1.91L15.5,34.714a.8.8,0,0,0-.458-.092c-.3.026-.615.052-.9.052-3.232,0-5.914-1.766-6.359-4.056h.209c3.951,0,7.236-2.277,7.877-5.247C18.632,25.947,20.581,27.818,20.581,29.938ZM8.008,19.575c3.546,0,6.424,2.12,6.424,4.737s-2.879,4.736-6.424,4.736A7.1,7.1,0,0,1,7.1,29a.8.8,0,0,0-.458.092L3.821,30.605l.34-1.91a.778.778,0,0,0-.353-.8A4.339,4.339,0,0,1,1.57,24.312C1.583,21.708,4.462,19.575,8.008,19.575Z" transform="translate(0 -17.992)" /></g></svg>