<svg xmlns="http://www.w3.org/2000/svg" width="10.469" height="17.683" viewBox="0 0 10.469 17.683"><defs><style>.a{stroke-linecap:round;}</style></defs><path class="a" d="M6.349,16.683H3.677a.81.81,0,0,1-.809-.809V9.848H1.309A.81.81,0,0,1,.5,9.039V6.456a.81.81,0,0,1,.809-.809H2.868V4.354A4.4,4.4,0,0,1,4.032,1.2,4.193,4.193,0,0,1,7.124,0L9.161,0a.81.81,0,0,1,.808.809v2.4a.81.81,0,0,1-.809.809H7.788c-.418,0-.525.084-.548.11-.038.043-.082.163-.082.5V5.647h1.9a.823.823,0,0,1,.4.1.812.812,0,0,1,.416.708V9.039a.81.81,0,0,1-.809.809H7.158v6.026A.81.81,0,0,1,6.349,16.683ZM9.159.981h0Zm0,0" transform="translate(0 0.5)"/></svg>