<svg xmlns="http://www.w3.org/2000/svg" width="16.741" height="20.583" viewBox="0 0 16.741 20.583"><g opacity="0.15"><g transform="translate(0)"><path d="M56.408.823A.826.826,0,0,0,55.584,0H40.49a.826.826,0,0,0-.823.823V19.76a.826.826,0,0,0,.823.823H55.584a.826.826,0,0,0,.823-.823V.823Zm-15.094.823H54.761v17.29H41.314Z" transform="translate(-39.667)" /><path d="M127.233,99.167h-7.41a.823.823,0,0,0,0,1.647h7.41a.823.823,0,0,0,0-1.647Z" transform="translate(-115.158 -94.364)" /><path d="M127.233,189.833h-7.41a.823.823,0,0,0,0,1.647h7.41a.823.823,0,0,0,0-1.647Z" transform="translate(-115.158 -180.639)" /><path d="M127.233,286.167h-7.41a.823.823,0,1,0,0,1.647h7.41a.823.823,0,1,0,0-1.647Z" transform="translate(-115.158 -272.308)" /></g></g></svg>