<svg xmlns="http://www.w3.org/2000/svg" width="12.341" height="13.451" viewBox="0 0 12.341 13.451"><g transform="translate(0.175 0.175)"><path d="M21.555,3.94h.894v8.714a.448.448,0,0,0,.447.447h8.193a.448.448,0,0,0,.447-.447V3.94h1.117a.447.447,0,0,0,0-.894h-2.13A3.181,3.181,0,0,0,29.71.991,3.531,3.531,0,0,0,27.022,0a3.236,3.236,0,0,0-2.607,1,2.961,2.961,0,0,0-.626,2.048H21.555a.447.447,0,1,0,0,.894Zm3.53-2.368A2.4,2.4,0,0,1,27.014.894a2.7,2.7,0,0,1,2.033.7,2.316,2.316,0,0,1,.574,1.452H24.683A2.11,2.11,0,0,1,25.085,1.572ZM30.641,3.94v8.267h-7.3V3.94Z" transform="translate(-21.108)"   stroke-width="0.35"/><path d="M174.555,192.75A.448.448,0,0,0,175,192.3v-5.139a.447.447,0,1,0-.894,0V192.3A.448.448,0,0,0,174.555,192.75Z" transform="translate(-170.086 -181.809)"   stroke-width="0.35"/><path d="M282.222,192.75a.448.448,0,0,0,.447-.447v-5.139a.447.447,0,1,0-.894,0V192.3A.448.448,0,0,0,282.222,192.75Z" transform="translate(-274.923 -181.809)"   stroke-width="0.35"/></g></svg>