<svg xmlns="http://www.w3.org/2000/svg" width="21.257" height="20.144" viewBox="0 0 21.257 20.144"><g transform="translate(0.326 0.325)"><path d="M2254.69,19.365a1.209,1.209,0,0,1-.654-.828l-.47-2.125a.176.176,0,0,0-.172-.137h-4.043a.177.177,0,0,0-.172.137l-.455,2.061a1.213,1.213,0,0,1-.666.835,1.235,1.235,0,0,1-1.068,0,10.187,10.187,0,0,1-5.842-9.348,10.026,10.026,0,0,1,3.063-7.02A10.316,10.316,0,0,1,2251.365,0h.083a8.268,8.268,0,0,1,5.848,1.835.516.516,0,0,1,.075.733.533.533,0,0,1-.743.074,7.245,7.245,0,0,0-5.253-1.6,9.241,9.241,0,0,0-9.169,8.941,9.141,9.141,0,0,0,5.243,8.39.174.174,0,0,0,.147,0,.177.177,0,0,0,.1-.122l.455-2.061a1.237,1.237,0,0,1,1.2-.957h4.043a1.237,1.237,0,0,1,1.2.957l.47,2.126a.167.167,0,0,0,.093.117.182.182,0,0,0,.159,0,9.149,9.149,0,0,0,5.375-8.277,9.053,9.053,0,0,0-2.084-5.76.515.515,0,0,1,.075-.733.533.533,0,0,1,.743.074,10.08,10.08,0,0,1,2.323,6.419,10.192,10.192,0,0,1-5.989,9.222,1.265,1.265,0,0,1-.523.114A1.252,1.252,0,0,1,2254.69,19.365ZM2253.4,12.6a.417.417,0,0,1-.42-.414V10.177a.411.411,0,0,1,.042-.18,2.806,2.806,0,0,1,2.368-1.607A2.772,2.772,0,0,1,2257.81,10a.412.412,0,0,1,.052.2v2.007a.416.416,0,0,1-.419.413Zm2.013-3.384a1.965,1.965,0,0,0-1.594,1.057v1.5l3.2.017V10.31a1.937,1.937,0,0,0-1.569-1.093ZM2245.4,12.6a.417.417,0,0,1-.42-.414V10.177a.414.414,0,0,1,.041-.18,2.808,2.808,0,0,1,2.368-1.607A2.772,2.772,0,0,1,2249.81,10a.412.412,0,0,1,.052.2v2.007a.416.416,0,0,1-.419.413Zm2.013-3.384a1.965,1.965,0,0,0-1.594,1.057v1.5l3.2.017V10.31a1.937,1.937,0,0,0-1.569-1.093Z" transform="translate(-2241.146)"   stroke-linecap="round" stroke-linejoin="round" stroke-width="0.65"/></g></svg>