<svg xmlns="http://www.w3.org/2000/svg" width="17.633" height="15.768" viewBox="0 0 17.633 15.768"><defs><style>.a{stroke-linecap:round;stroke-width:1.25px;}.a,.b{}.b{stroke-width:0.15px;}</style></defs><g transform="translate(0.079 0.884)"><g transform="translate(0 1.5)"><line class="a" x1="14" y2="14" transform="translate(1.5 -1.5)"/><path class="b" d="M5077.264,3705.793a9.517,9.517,0,0,1-1.979-2.726.585.585,0,0,1-.01-.472,7.919,7.919,0,0,1,1.876-2.573,9.549,9.549,0,0,1,6.756-2.523,10.48,10.48,0,0,1,4.41.913l-.947.947-.039-.015.022.032-.887.887a2.993,2.993,0,1,0-4.089,4.09l-.891.89a4.221,4.221,0,0,1-1.086-5.879,7.505,7.505,0,0,0-3.874,3.445,9.3,9.3,0,0,0,1.629,2.143,8.382,8.382,0,0,0,2.116,1.506l-.9.9A9.509,9.509,0,0,1,5077.264,3705.793Z" transform="translate(-5075.231 -3697.5)"/><path class="b" d="M5077.728,3708.042l.981-.981a8.7,8.7,0,0,0,2.019.23,8.031,8.031,0,0,0,5.8-2.327,9.262,9.262,0,0,0,1.62-2.132,7.654,7.654,0,0,0-2.514-2.7l.9-.9a8.978,8.978,0,0,1,.963.774,8.365,8.365,0,0,1,1.927,2.563.589.589,0,0,1,0,.492,9.776,9.776,0,0,1-1.979,2.728,9.4,9.4,0,0,1-6.7,2.707A9.779,9.779,0,0,1,5077.728,3708.042Zm2.128-2.128,1.18-1.18a3,3,0,0,0,2.579-2.578l1.181-1.181a4.181,4.181,0,0,1,.075.791,4.226,4.226,0,0,1-5.015,4.148Z" transform="translate(-5072 -3697.5)"/></g></g></svg>