<svg xmlns="http://www.w3.org/2000/svg" width="22.335" height="14.146" viewBox="0 0 22.335 14.146"><defs><style>.a{stroke-width:0.25px;}</style></defs><g transform="translate(0.129 0.125)"><path class="a" d="M2.567,99.958a11.821,11.821,0,0,0,8.469,3.419,11.875,11.875,0,0,0,8.469-3.419,12.357,12.357,0,0,0,2.5-3.445.745.745,0,0,0,0-.622,10.562,10.562,0,0,0-2.435-3.238,12.34,12.34,0,0,0-8.612-3.173,12.069,12.069,0,0,0-8.534,3.186,10.01,10.01,0,0,0-2.37,3.251.734.734,0,0,0,.013.6A12.045,12.045,0,0,0,2.567,99.958Zm8.353-8.871a3.781,3.781,0,1,1-3.781,3.781A3.786,3.786,0,0,1,10.92,91.087Zm-4.39.751a5.29,5.29,0,0,0-.945,3.03,5.335,5.335,0,1,0,9.7-3.056,9.844,9.844,0,0,1,5.115,4.4,11.728,11.728,0,0,1-2.046,2.694,10.146,10.146,0,0,1-7.33,2.94A10.21,10.21,0,0,1,3.694,98.9a11.772,11.772,0,0,1-2.059-2.707A9.49,9.49,0,0,1,6.53,91.838Z" transform="translate(0.002 -89.481)"/></g></svg>