<svg xmlns="http://www.w3.org/2000/svg" width="18.649" height="18.649" viewBox="0 0 18.649 18.649"><defs><style>.a{}.b{}</style></defs><g  transform="translate(0.125 0.125)"><path  d="M214.86,336.033a.662.662,0,0,0-.66.66v.44a.66.66,0,1,0,1.321,0v-.44A.662.662,0,0,0,214.86,336.033Z" transform="translate(-205.881 -322.982)"/><path  d="M9.2,18.4A9.2,9.2,0,1,0,0,9.2,9.21,9.21,0,0,0,9.2,18.4Zm0-17.079A7.879,7.879,0,1,1,1.321,9.2,7.885,7.885,0,0,1,9.2,1.321Z"/><path  d="M147.132,95.512h0a.644.644,0,0,0,.66-.638,2.691,2.691,0,0,1,.275-1.045,1.8,1.8,0,0,1,1.772-.99,2.08,2.08,0,0,1,1.728.649,1.557,1.557,0,0,1,.22,1.365,4.392,4.392,0,0,1-1.266,1.761,3.554,3.554,0,0,0-1.354,2.311.66.66,0,1,0,1.321,0c0-.4.473-.88.979-1.387a5.41,5.41,0,0,0,1.6-2.355,2.829,2.829,0,0,0-.451-2.5,3.278,3.278,0,0,0-2.762-1.166,3.054,3.054,0,0,0-2.949,1.717,4.054,4.054,0,0,0-.418,1.64A.641.641,0,0,0,147.132,95.512Z" transform="translate(-140.794 -87.963)"/></g></svg>