<svg xmlns="http://www.w3.org/2000/svg" width="25.61" height="24.598" viewBox="0 0 25.61 24.598"><g><path d="M94.844,410.587c0-4.046-5.271-7.327-11.773-7.327-6.442,0-11.673,3.221-11.769,7.216l-.011,0h0c0,6.237,5.319,11.293,11.88,11.293h0c6.447,0,11.674-4.969,11.674-11.1h0C94.841,410.645,94.844,410.616,94.844,410.587Z" transform="translate(-70.307 -397.674)" fill="none" stroke-width="1"/><path d="M97.876,435.831a.646.646,0,0,0-.858.217,2.937,2.937,0,0,1-4.915.058.646.646,0,0,0-.863-.2.58.58,0,0,0-.207.82,4.226,4.226,0,0,0,7.071-.084A.581.581,0,0,0,97.876,435.831Z" transform="translate(-81.673 -417.143)"/><path d="M2854.439,3618.914a2.563,2.563,0,0,1-.594-.07,21.11,21.11,0,0,0-5.048-.622,28.72,28.72,0,0,0-5.593.622,2.806,2.806,0,0,1-.534.052,3.746,3.746,0,0,1-3.421-3.109,3.18,3.18,0,0,1,1.311-2.96,8.822,8.822,0,0,1,2.969-1.533,20.955,20.955,0,0,1,5.253-.665,15.052,15.052,0,0,1,4.526.615c2.69,1.033,4.482,2.132,4.482,4.139a3.551,3.551,0,0,1-1.049,2.494A3.3,3.3,0,0,1,2854.439,3618.914Zm-2.7-6.253a.748.748,0,0,0-.747.747v2.619a.747.747,0,0,0,1.493,0v-2.619A.748.748,0,0,0,2851.742,3612.662Zm-6.2,0a.748.748,0,0,0-.747.747v2.619a.747.747,0,0,0,1.493,0v-2.619A.748.748,0,0,0,2845.543,3612.662Z" transform="translate(-2835.599 -3602.316)" stroke="rgba(0,0,0,0)" stroke-miterlimit="10" stroke-width="1"/><ellipse cx="2.266" cy="2.154" rx="2.266" ry="2.154" transform="translate(10.494)" /><path d="M.331-.043A3.584,3.584,0,0,1,3.619,3.441,2.448,2.448,0,0,1,2.453,5.814L2.03,2.825Z" transform="translate(3.619 19.147) rotate(180)" /><path d="M.23,5.871A3.509,3.509,0,0,0,3.61,2.555,3.1,3.1,0,0,0,2.37-.057L1.7,2.989Z" transform="translate(22 13.333)" /></g></svg>