<svg xmlns="http://www.w3.org/2000/svg" width="17.222" height="24.126" viewBox="0 0 17.222 24.126"><defs><style>.a{}.b{}</style></defs><g  transform="translate(0.125 0.125)"><g transform="translate(0)"><path  d="M169.362,114.467a3.753,3.753,0,1,0,3.753,3.753A3.753,3.753,0,0,0,169.362,114.467Zm0,5.825a2.072,2.072,0,1,1,2.072-2.072A2.077,2.077,0,0,1,169.362,120.292Z" transform="translate(-160.876 -108.81)"/><path  d="M84.559,2.8A8.407,8.407,0,0,0,78.076,0c-5.405,0-8.234,4.4-8.234,8.738,0,5.685,7.772,14.465,8.108,14.843a.813.813,0,0,0,.616.294h.014a.873.873,0,0,0,.616-.28,41.783,41.783,0,0,0,3.781-4.859c2.549-3.809,3.837-7.184,3.837-10.012A9.043,9.043,0,0,0,84.559,2.8ZM78.594,21.719c-1.82-2.185-7.058-8.808-7.058-13,0-3.389,2.058-7.044,6.554-7.044a6.9,6.9,0,0,1,7.044,7.044C85.134,13.653,80.33,19.689,78.594,21.719Z" transform="translate(-69.842)"/></g></g></svg>