<svg xmlns="http://www.w3.org/2000/svg" width="17.358" height="22.742" viewBox="0 0 17.358 22.742"><defs><style>.a{}.b{stroke-width:0.15px;}</style></defs><g transform="translate(0.075 0.075)"><g class="a"><path class="b" d="M16.547,0H.662A.662.662,0,0,0,0,.662V21.93a.662.662,0,0,0,.662.662H13.017A4.2,4.2,0,0,0,17.208,18.4V.662A.662.662,0,0,0,16.547,0Zm-.662,18.4a2.871,2.871,0,0,1-2.868,2.868H1.324V1.324H15.885Zm0,0"/><path class="b" d="M60.662,69.4h10.59a.662.662,0,0,0,.662-.662V60.662A.662.662,0,0,0,71.252,60H60.662a.662.662,0,0,0-.662.662v8.075A.662.662,0,0,0,60.662,69.4Zm.662-8.075H70.59v6.751H61.324Zm0,0" transform="translate(-57.353 -57.353)"/><path class="b" d="M60.662,306.309h1.324v1.324a.662.662,0,0,0,1.324,0v-1.324h1.324a.662.662,0,1,0,0-1.324H63.309v-1.324a.662.662,0,0,0-1.324,0v1.324H60.662a.662.662,0,1,0,0,1.324Zm0,0" transform="translate(-57.353 -289.63)"/><path class="b" d="M216.324,333.662a.662.662,0,1,1-.662-.662A.662.662,0,0,1,216.324,333.662Zm0,0" transform="translate(-204.215 -316.36)"/><path class="b" d="M276.324,308.662a.662.662,0,1,1-.662-.662A.662.662,0,0,1,276.324,308.662Zm0,0" transform="translate(-262.217 -293.761)"/></g></g></svg>