<svg xmlns="http://www.w3.org/2000/svg" width="18.632" height="28.436" viewBox="0 0 18.632 28.436"><defs><style>.a{}.b{stroke-linecap:round;stroke-width:0.25px;}</style></defs><g transform="translate(0.125 0.125)"><g class="a" transform="translate(-64)"><g transform="translate(64)"><path class="b" d="M81.963,8.61,78.706,7.524v-1.4h.613a3.064,3.064,0,1,0,0-6.127H67.064a3.064,3.064,0,1,0,0,6.127h.613v1.4L64.419,8.61A.612.612,0,0,0,64,9.191v8.578a3.067,3.067,0,0,0,3.064,3.064h5.515v3.811l-4.438,1.11a.613.613,0,0,0-.464.594v1.225a.613.613,0,1,0,1.225,0v-.747l3.676-.919v1.666a.613.613,0,1,0,1.225,0V25.907l3.676.919v.747a.613.613,0,1,0,1.225,0V26.348a.613.613,0,0,0-.464-.594L73.8,24.644V20.833h5.515a3.067,3.067,0,0,0,3.064-3.064V9.191A.613.613,0,0,0,81.963,8.61ZM67.064,4.9a1.838,1.838,0,1,1,0-3.676H79.318a1.838,1.838,0,1,1,0,3.676ZM77.48,6.127v8.578H68.9V6.127ZM65.225,9.633l2.451-.817v5.89H65.225Zm15.931,8.137a1.84,1.84,0,0,1-1.838,1.838H67.064a1.84,1.84,0,0,1-1.838-1.838V15.931H81.157Zm0-3.064H78.706V8.816l2.451.817Z" transform="translate(-64)"/></g></g></g></svg>