<svg xmlns="http://www.w3.org/2000/svg" width="39.54" height="32.584" viewBox="0 0 39.54 32.584"><defs><style>.a{}</style></defs><g transform="translate(-222.788 -228.49)"><g transform="translate(222.788 228.49)"><g transform="translate(0)"><path d="M171.73,269.167h-2.036a1.114,1.114,0,0,0-1.111,1.111v1.851a1.114,1.114,0,0,0,1.111,1.111h2.036a1.114,1.114,0,0,0,1.111-1.111v-1.851A1.114,1.114,0,0,0,171.73,269.167Z" transform="translate(-163.585 -251.58)"/><path d="M271.823,272.129v-1.851a1.114,1.114,0,0,0-1.111-1.111h-1.851a1.114,1.114,0,0,0-1.111,1.111v1.851a1.114,1.114,0,0,0,1.111,1.111h1.851A1.114,1.114,0,0,0,271.823,272.129Z" transform="translate(-256.272 -251.58)"/><path d="M171.73,175.667h-2.036a1.114,1.114,0,0,0-1.111,1.111v1.851a1.114,1.114,0,0,0,1.111,1.111h2.036a1.114,1.114,0,0,0,1.111-1.111v-1.851A1.114,1.114,0,0,0,171.73,175.667Z" transform="translate(-163.585 -164.189)"/><path d="M268.861,179.74h1.851a1.114,1.114,0,0,0,1.111-1.111v-1.851a1.114,1.114,0,0,0-1.111-1.111h-1.851a1.114,1.114,0,0,0-1.111,1.111v1.851A1.114,1.114,0,0,0,268.861,179.74Z" transform="translate(-256.272 -164.189)"/><path d="M171.73,85h-2.036a1.114,1.114,0,0,0-1.111,1.111v1.851a1.114,1.114,0,0,0,1.111,1.111h2.036a1.114,1.114,0,0,0,1.111-1.111V86.111A1.114,1.114,0,0,0,171.73,85Z" transform="translate(-163.585 -79.446)"/><path d="M268.861,89.073h1.851a1.114,1.114,0,0,0,1.111-1.111V86.111A1.114,1.114,0,0,0,270.712,85h-1.851a1.114,1.114,0,0,0-1.111,1.111v1.851A1.114,1.114,0,0,0,268.861,89.073Z" transform="translate(-256.272 -79.446)"/><path d="M34.269,1.111A1.114,1.114,0,0,0,33.158,0H14.83A1.114,1.114,0,0,0,13.72,1.111c.088.052,0,30.361,0,30.361s.077,1.152,1.111,1.111h4.813a1.1,1.1,0,0,0,.944-.537,1.121,1.121,0,0,0,.537-.944V26.843h5.739V31.1a1.133,1.133,0,0,0,.8,1.074,1.089,1.089,0,0,0,.87.407s4.848-.018,4.838,0c.98.039.9-1.111.9-1.111ZM20.014,24.622A1.114,1.114,0,0,0,18.9,25.733v4.628H15.941V2.222H32.047V30.361H29.085V25.733a1.114,1.114,0,0,0-1.111-1.111h-7.96Z" transform="translate(-13.72 0)"/></g></g><path d="M19.7,26.507h-.048c-.007,0-.228-.008-1.249-.008-1.419,0-3.567.008-3.588.008a1.093,1.093,0,0,1-.87-.408,1.13,1.13,0,0,1-.8-1.074V20.767H7.405v4.258a1.118,1.118,0,0,1-.537.944,1.1,1.1,0,0,1-.944.537H1.058C.085,26.507,0,25.406,0,25.4s0-.425.006-1.133H2.221v.022H5.184V19.656a1.112,1.112,0,0,1,1.111-1.111h7.961a1.112,1.112,0,0,1,1.111,1.111v4.628h2.962V9.817L10.593,2.981l-5.874,4.8V4.684L10.521,0l8.917,7.6a2.754,2.754,0,0,1,1.111,2.221V25.4a1.329,1.329,0,0,1-.266.879A.768.768,0,0,1,19.7,26.507ZM14.44,15.583H12.588a1.112,1.112,0,0,1-1.111-1.111V12.622a1.112,1.112,0,0,1,1.111-1.111H14.44a1.112,1.112,0,0,1,1.111,1.111v1.851A1.112,1.112,0,0,1,14.44,15.583Zm-6.294,0H6.109A1.112,1.112,0,0,1,5,14.473V12.622A1.112,1.112,0,0,1,6.109,11.51H8.146a1.112,1.112,0,0,1,1.111,1.111v1.851A1.112,1.112,0,0,1,8.146,15.583Z" transform="translate(241.777 234.567)"/></g></svg>