<svg xmlns="http://www.w3.org/2000/svg" width="15.863" height="17.683" viewBox="0 0 15.863 17.683"><defs><style>.a{stroke-linecap:round;}</style></defs><g transform="translate(0.5 0.5)"><path class="a" d="M3.884,151.625H1.072A.572.572,0,0,0,.5,152.2v10.6a.572.572,0,0,0,.572.572H3.884a.572.572,0,0,0,.572-.572V152.2A.572.572,0,0,0,3.884,151.625Z" transform="translate(-0.484 -146.684)"/><path class="a" d="M1.994,0A1.994,1.994,0,1,0,3.988,1.994,2,2,0,0,0,1.994,0Z"/><path class="a" d="M165.791,152.871a3.649,3.649,0,0,0-2.406-.845,3.689,3.689,0,0,0-1.562.38v-.231a.546.546,0,0,0-.546-.546h-2.864a.546.546,0,0,0-.546.546v10.65a.546.546,0,0,0,.546.546h2.92a.49.49,0,0,0,.49-.489v-6.35c0-.544,2-.582,2-.021v6.381a.479.479,0,0,0,.479.479h2.806a.479.479,0,0,0,.479-.479V156.7A4.981,4.981,0,0,0,165.791,152.871Z" transform="translate(-152.723 -146.688)"/></g></svg>