<svg xmlns="http://www.w3.org/2000/svg" width="26.598" height="12.998" viewBox="0 0 26.598 12.998"><defs><style>.a{}.b{stroke-width:0.45px;}</style></defs><g transform="translate(0.225 0.225)"><g class="a" transform="translate(0 -133.151)"><g transform="translate(0 133.151)"><path class="b" d="M25.762,137.541H23.93v-1.928a1.058,1.058,0,0,0-1.056-1.056H21.632a1.051,1.051,0,0,0-.283.04v-.389a1.058,1.058,0,0,0-1.056-1.056H18.242a1.058,1.058,0,0,0-1.056,1.056v3.333H8.963v-3.333a1.058,1.058,0,0,0-1.056-1.056H5.856A1.058,1.058,0,0,0,4.8,134.207v.389a1.051,1.051,0,0,0-.283-.04H3.274a1.058,1.058,0,0,0-1.056,1.056v1.928H.386a.386.386,0,0,0-.386.386v3a.386.386,0,0,0,.386.386H2.218v1.928a1.058,1.058,0,0,0,1.056,1.056H4.516a1.053,1.053,0,0,0,.283-.04v.389A1.058,1.058,0,0,0,5.856,145.7H7.907a1.058,1.058,0,0,0,1.056-1.056v-3.333h8.223v3.333a1.058,1.058,0,0,0,1.056,1.056h2.051a1.058,1.058,0,0,0,1.056-1.056v-.389a1.051,1.051,0,0,0,.283.04h1.242a1.058,1.058,0,0,0,1.056-1.056v-1.928h1.832a.386.386,0,0,0,.386-.386v-3A.387.387,0,0,0,25.762,137.541Zm-23.544,3H.773v-2.223H2.218Zm2.581,2.7a.284.284,0,0,1-.283.283H3.274a.284.284,0,0,1-.283-.283v-7.625a.284.284,0,0,1,.283-.283H4.516a.284.284,0,0,1,.283.283Zm3.391-5.31v6.716a.284.284,0,0,1-.283.283H5.856a.284.284,0,0,1-.283-.283V134.207a.284.284,0,0,1,.283-.283H7.907a.284.284,0,0,1,.283.283Zm9,2.609H8.963v-2.223h8.222Zm3.391-4.924v9.03a.284.284,0,0,1-.283.283H18.242a.284.284,0,0,1-.283-.283V134.207a.284.284,0,0,1,.283-.283h2.051a.284.284,0,0,1,.283.283Zm2.581,2.314v5.31a.284.284,0,0,1-.283.283H21.632a.284.284,0,0,1-.283-.283v-7.625a.284.284,0,0,1,.283-.283h1.242a.284.284,0,0,1,.283.283Zm2.218,2.61H23.93v-2.223h1.445Z" transform="translate(0 -133.151)"/></g></g></g></svg>