<svg xmlns="http://www.w3.org/2000/svg" width="37.166" height="37.172" viewBox="0 0 37.166 37.172"><defs><style>.a{stroke-linecap:round;stroke-linejoin:round;stroke-width:0.15px;}</style></defs><g transform="translate(0.075 0.097)"><path d="M36.383,17.267H33.3a2.453,2.453,0,0,0-.807-1.812l4.461-10.9a.616.616,0,0,0-.229-.746L31.176.1A.617.617,0,0,0,30.4.181L28.983,1.595l-.8-.8a.617.617,0,0,0-.872,0L26.261,1.85h-.467a4.794,4.794,0,0,0-3.413,1.414.617.617,0,0,0,0,.872l.74.74a2.459,2.459,0,1,0,3.458,3.458l.735.735a.616.616,0,0,0,.872,0A4.8,4.8,0,0,0,29.6,5.655V5.189l1.053-1.053a.617.617,0,0,0,0-.872l-.8-.8L30.912,1.41l4.71,3.139L31.4,14.872a2.444,2.444,0,0,0-3.032,2.4H14.627L13.805,14.8h5.311a1.85,1.85,0,0,0,1.85-1.85V1.85A1.85,1.85,0,0,0,19.117,0H1.85A1.85,1.85,0,0,0,0,1.85v11.1A1.85,1.85,0,0,0,1.85,14.8H7.161l-.822,2.467H.617A.617.617,0,0,0,0,17.883V20.35a.617.617,0,0,0,.617.617h.617V36.383A.617.617,0,0,0,1.85,37H4.317a.617.617,0,0,0,.617-.617V20.967h18.5V36.383A.617.617,0,0,0,24.05,37h11.1a.617.617,0,0,0,.617-.617V20.967h.617A.617.617,0,0,0,37,20.35V17.883A.617.617,0,0,0,36.383,17.267ZM24.667,8.017A1.228,1.228,0,0,1,24,5.755l1.7,1.7A1.238,1.238,0,0,1,24.667,8.017ZM28.547,4.5a.617.617,0,0,0-.181.436v.722a3.563,3.563,0,0,1-.654,2.068L23.726,3.737a3.563,3.563,0,0,1,2.068-.654h.723a.617.617,0,0,0,.436-.181l.8-.8L29.345,3.7Zm2.286,11.536a1.233,1.233,0,0,1,1.233,1.233H29.6A1.233,1.233,0,0,1,30.833,16.033ZM1.85,1.233H19.117a.617.617,0,0,1,.617.617V11.1H1.233V1.85A.617.617,0,0,1,1.85,1.233ZM1.233,12.95v-.617h18.5v.617a.617.617,0,0,1-.617.617H1.85A.617.617,0,0,1,1.233,12.95ZM8.461,14.8h4.044l.822,2.467H7.639ZM3.7,35.767H2.467v-14.8H3.7Zm30.833-7.4H24.667v-3.7h9.867Zm-9.867,7.4V29.6h9.867v6.167Zm9.867-12.333H24.667V20.967h9.867Zm1.233-3.7H1.233V18.5H35.767Zm0,0"/><path d="M376.382,281.186a.614.614,0,0,0,.234.049.72.72,0,0,0,.117-.012.369.369,0,0,0,.118-.037.344.344,0,0,0,.1-.055c.036-.025.068-.049.1-.074a.625.625,0,0,0,0-.876.6.6,0,0,0-.1-.074.351.351,0,0,0-.1-.055.376.376,0,0,0-.118-.037.576.576,0,0,0-.351.037.637.637,0,0,0-.2.129.625.625,0,0,0,0,.876A.638.638,0,0,0,376.382,281.186Zm0,0" transform="translate(-347.017 -258.418)"/><path d="M376.179,337.056a.645.645,0,0,0,.438.179.72.72,0,0,0,.117-.012.367.367,0,0,0,.118-.037.343.343,0,0,0,.1-.055c.036-.025.068-.049.1-.074a.648.648,0,0,0,.179-.438.851.851,0,0,0-.013-.123.37.37,0,0,0-.036-.111.5.5,0,0,0-.055-.111l-.074-.092c-.031-.025-.062-.049-.1-.074a.35.35,0,0,0-.1-.055.376.376,0,0,0-.118-.037.575.575,0,0,0-.351.037.637.637,0,0,0-.2.129.992.992,0,0,0-.074.092.472.472,0,0,0-.055.111.389.389,0,0,0-.037.111.885.885,0,0,0-.012.123A.645.645,0,0,0,376.179,337.056Zm0,0" transform="translate(-347.017 -310.102)"/><path d="M376.956,416.106a.349.349,0,0,0-.1-.055.376.376,0,0,0-.118-.037.575.575,0,0,0-.351.037.638.638,0,0,0-.2.129.625.625,0,0,0,0,.876.637.637,0,0,0,.2.129.614.614,0,0,0,.234.049.727.727,0,0,0,.117-.012.368.368,0,0,0,.118-.037.343.343,0,0,0,.1-.055.608.608,0,0,0,.1-.074.625.625,0,0,0,0-.876C377.024,416.156,376.992,416.131,376.956,416.106Zm0,0" transform="translate(-347.017 -383.935)"/></g></svg>