<svg xmlns="http://www.w3.org/2000/svg" width="27.817" height="22.766" viewBox="0 0 27.817 22.766"><path d="M10.378,22.767a23.868,23.868,0,0,1-3.687-.293,17.3,17.3,0,0,1-5.043-1.835L0,19.738l1.784-.587c1.951-.641,3.137-1.039,4.606-1.662a6.127,6.127,0,0,1-3.15-3.65l-.415-1.26.34.052a6.19,6.19,0,0,1-.775-.956,5.868,5.868,0,0,1-1-3.489l.078-1.1.659.255a6.156,6.156,0,0,1-.6-1.672,6.363,6.363,0,0,1,.678-4.284L2.787.332l.767.921A14.119,14.119,0,0,0,12.7,6.4,5.471,5.471,0,0,1,13.033,3.5,5.442,5.442,0,0,1,15.245.96,6.645,6.645,0,0,1,19.1.013a6.16,6.16,0,0,1,3.787,1.562,12.712,12.712,0,0,0,1.386-.463c.3-.114.649-.244,1.08-.393L26.944.172l-1.036,2.96c.068-.006.139-.011.212-.014l1.7-.077-1,1.371c-.058.079-.072.1-.093.132-.081.122-.181.273-1.558,2.112a2.593,2.593,0,0,0-.485,1.688,15.971,15.971,0,0,1-.872,6.424,11.367,11.367,0,0,1-3.051,4.52,13.477,13.477,0,0,1-6.388,3.088A19.666,19.666,0,0,1,10.378,22.767Zm0,0" transform="translate(0 0)" /></svg>