<svg xmlns="http://www.w3.org/2000/svg" width="31.255" height="34.771" viewBox="0 0 31.255 34.771"><defs><style>.a{stroke-linecap:round;stroke-linejoin:round;stroke-width:0.15px;}</style></defs><g transform="translate(0.075 0.075)"><path d="M56.428,8.114H43.581V.676A.676.676,0,0,0,42.9,0H26.676A.676.676,0,0,0,26,.676V33.944a.676.676,0,0,0,.676.676H56.428a.676.676,0,0,0,.676-.676V8.791A.676.676,0,0,0,56.428,8.114ZM43.581,9.467H55.752v17.04H43.581Zm-10.819,23.8V27.859h4.057v5.409ZM37.5,26.506H32.086a.676.676,0,0,0-.676.676v6.086H27.352V1.352H42.228V33.268H38.171V27.183A.676.676,0,0,0,37.5,26.506Zm6.086,6.762V27.859H55.752v5.409Z" transform="translate(-26)"/><path d="M136.675,42.706h1.352a.676.676,0,0,0,.676-.676V40.677a.676.676,0,0,0-.676-.676h-1.352a.676.676,0,0,0-.676.676V42.03A.676.676,0,0,0,136.675,42.706Z" transform="translate(-128.561 -37.296)"/><path d="M136.675,112.706h1.352a.676.676,0,0,0,.676-.676v-1.352a.676.676,0,0,0-.676-.676h-1.352a.676.676,0,0,0-.676.676v1.352A.676.676,0,0,0,136.675,112.706Z" transform="translate(-128.561 -102.563)"/><path d="M136.675,182.706h1.352a.676.676,0,0,0,.676-.676v-1.352a.676.676,0,0,0-.676-.676h-1.352a.676.676,0,0,0-.676.676v1.352A.676.676,0,0,0,136.675,182.706Z" transform="translate(-128.561 -167.83)"/><path d="M136.675,252.7h1.352a.676.676,0,0,0,.676-.676v-1.352a.676.676,0,0,0-.676-.676h-1.352a.676.676,0,0,0-.676.676v1.352A.676.676,0,0,0,136.675,252.7Z" transform="translate(-128.561 -233.095)"/><path d="M136.675,322.7h1.352a.676.676,0,0,0,.676-.676v-1.352a.676.676,0,0,0-.676-.676h-1.352a.676.676,0,0,0-.676.676v1.352A.676.676,0,0,0,136.675,322.7Z" transform="translate(-128.561 -298.362)"/><path d="M66.677,42.706h1.352a.676.676,0,0,0,.676-.676V40.677A.676.676,0,0,0,68.029,40H66.677a.676.676,0,0,0-.676.676V42.03A.676.676,0,0,0,66.677,42.706Z" transform="translate(-63.296 -37.296)"/><path d="M66.677,112.706h1.352a.676.676,0,0,0,.676-.676v-1.352a.676.676,0,0,0-.676-.676H66.677a.676.676,0,0,0-.676.676v1.352A.676.676,0,0,0,66.677,112.706Z" transform="translate(-63.296 -102.563)"/><path d="M66.677,182.706h1.352a.676.676,0,0,0,.676-.676v-1.352a.676.676,0,0,0-.676-.676H66.677a.676.676,0,0,0-.676.676v1.352A.676.676,0,0,0,66.677,182.706Z" transform="translate(-63.296 -167.83)"/><path d="M66.677,252.7h1.352a.676.676,0,0,0,.676-.676v-1.352a.676.676,0,0,0-.676-.676H66.677a.676.676,0,0,0-.676.676v1.352A.676.676,0,0,0,66.677,252.7Z" transform="translate(-63.296 -233.095)"/><path d="M66.677,322.7h1.352a.676.676,0,0,0,.676-.676v-1.352a.676.676,0,0,0-.676-.676H66.677a.676.676,0,0,0-.676.676v1.352A.676.676,0,0,0,66.677,322.7Z" transform="translate(-63.296 -298.362)"/><path d="M208.029,40h-1.352a.676.676,0,0,0-.676.676V42.03a.676.676,0,0,0,.676.676h1.352a.676.676,0,0,0,.676-.676V40.677A.676.676,0,0,0,208.029,40Z" transform="translate(-193.83 -37.296)"/><path d="M208.029,110h-1.352a.676.676,0,0,0-.676.676v1.352a.676.676,0,0,0,.676.676h1.352a.676.676,0,0,0,.676-.676v-1.352A.676.676,0,0,0,208.029,110Z" transform="translate(-193.83 -102.562)"/><path d="M208.029,180h-1.352a.676.676,0,0,0-.676.676v1.352a.676.676,0,0,0,.676.676h1.352a.676.676,0,0,0,.676-.676v-1.352A.676.676,0,0,0,208.029,180Z" transform="translate(-193.83 -167.829)"/><path d="M208.029,250h-1.352a.676.676,0,0,0-.676.676v1.352a.676.676,0,0,0,.676.676h1.352a.676.676,0,0,0,.676-.676v-1.352A.676.676,0,0,0,208.029,250Z" transform="translate(-193.83 -233.095)"/><path d="M208.029,320h-1.352a.676.676,0,0,0-.676.676v1.352a.676.676,0,0,0,.676.676h1.352a.676.676,0,0,0,.676-.676v-1.352A.676.676,0,0,0,208.029,320Z" transform="translate(-193.83 -298.362)"/><path d="M393.028,180h-1.352a.676.676,0,0,0-.676.676v1.352a.676.676,0,0,0,.676.676h1.352a.676.676,0,0,0,.676-.676v-1.352A.676.676,0,0,0,393.028,180Z" transform="translate(-366.319 -167.829)"/><path d="M393.028,250h-1.352a.676.676,0,0,0-.676.676v1.352a.676.676,0,0,0,.676.676h1.352a.676.676,0,0,0,.676-.676v-1.352A.676.676,0,0,0,393.028,250Z" transform="translate(-366.319 -233.095)"/><path d="M393.028,320h-1.352a.676.676,0,0,0-.676.676v1.352a.676.676,0,0,0,.676.676h1.352a.676.676,0,0,0,.676-.676v-1.352A.676.676,0,0,0,393.028,320Z" transform="translate(-366.319 -298.362)"/><path d="M323.03,180h-1.352a.676.676,0,0,0-.676.676v1.352a.676.676,0,0,0,.676.676h1.352a.676.676,0,0,0,.676-.676v-1.352A.676.676,0,0,0,323.03,180Z" transform="translate(-301.054 -167.829)"/><path d="M323.03,250h-1.352a.676.676,0,0,0-.676.676v1.352a.676.676,0,0,0,.676.676h1.352a.676.676,0,0,0,.676-.676v-1.352A.676.676,0,0,0,323.03,250Z" transform="translate(-301.054 -233.095)"/><path d="M323.03,320h-1.352a.676.676,0,0,0-.676.676v1.352a.676.676,0,0,0,.676.676h1.352a.676.676,0,0,0,.676-.676v-1.352A.676.676,0,0,0,323.03,320Z" transform="translate(-301.054 -298.362)"/></g></svg>