<svg xmlns="http://www.w3.org/2000/svg" width="14.688" height="14.707" viewBox="0 0 14.688 14.707"><g transform="translate(0.075 0.112)"><g transform="translate(0 0)"><path d="M9.424.166.54,9.05a.613.613,0,0,0-.172.392L.3,13.966a.535.535,0,0,0,.172.4.571.571,0,0,0,.4.153h.01l4.389-.038a.556.556,0,0,0,.4-.153l8.961-8.961a.583.583,0,0,0,0-.813l-4.4-4.4A.592.592,0,0,0,9.424.166Zm-4.4,13.187L1.458,13.4l.057-3.71L7.445,3.762l3.586,3.586Zm6.809-6.809L8.258,2.959,9.835,1.381l3.577,3.586Z" transform="translate(-0.301 0)" stroke-width="0.15"/></g></g></svg>