<svg xmlns="http://www.w3.org/2000/svg" width="31" height="26.085" viewBox="0 0 31 26.085"><path d="M31,37.967a1.137,1.137,0,0,0-1.134-1.134H1.134A1.137,1.137,0,0,0,0,37.967V61.784a1.137,1.137,0,0,0,1.134,1.134H29.866A1.137,1.137,0,0,0,31,61.784ZM28.732,39.1V53.618l-6.654-4.669a1.113,1.113,0,0,0-1.418.113L17.2,52.39l-7.183-6.937a1.127,1.127,0,0,0-1.682.113L2.287,53.335V39.1ZM2.268,60.65V57.021l7.07-9.054,7.069,6.824a1.143,1.143,0,0,0,1.569,0l3.554-3.44,7.2,5.047V60.65Z" transform="translate(0 -36.833)" /><path d="M243.309,138.685a2.193,2.193,0,1,0-2.193-2.193A2.194,2.194,0,0,0,243.309,138.685Z" transform="translate(-225.03 -127.798)" /></svg>