<svg xmlns="http://www.w3.org/2000/svg" width="18.364" height="17.067" viewBox="0 0 18.364 17.067"><defs><style>.a{fill:none;stroke:#fff;stroke-linecap:round;stroke-linejoin:round;stroke-width:1.5px;}</style></defs><path class="a" d="M8.116,32.377a.689.689,0,0,0,.356.108.626.626,0,0,0,.356-.108c.291-.194,7.136-4.707,7.913-9.295a5.5,5.5,0,0,0-1.015-4.653,4.206,4.206,0,0,0-3.163-1.511,3.067,3.067,0,0,0-1.1.194,8.035,8.035,0,0,0-3.357,2.451A6.858,6.858,0,0,0,5.266,17.35a3.752,3.752,0,0,0-1.22-.194,3.869,3.869,0,0,0-2.872,1.252A5.44,5.44,0,0,0,.041,22.78C.495,27.368,7.8,32.172,8.116,32.377Z" transform="translate(0.754 -16.168)"/></svg>