<svg xmlns="http://www.w3.org/2000/svg" width="18.954" height="21.248" viewBox="0 0 18.954 21.248"><defs><style>.a{}.b{stroke-linecap:round;stroke-linejoin:round;stroke-width:0.15px;}</style></defs><g transform="translate(0.075 0.075)"><g class="a" transform="translate(-15.978)"><g transform="translate(15.978)"><path class="b" d="M31.491,79.513H31.3V76.82a.768.768,0,0,0-.769-.768H16.747a.768.768,0,1,0,0,1.536H29.765v9.626a2.939,2.939,0,0,1-2.94,2.94H20.5a2.94,2.94,0,0,1-2.94-2.94V79.643a.768.768,0,1,0-1.536,0v7.571A4.476,4.476,0,0,0,20.5,91.69h6.322A4.476,4.476,0,0,0,31.3,87.214V86.156h.19a3.294,3.294,0,0,0,3.291-3.291V82.8A3.294,3.294,0,0,0,31.491,79.513Zm1.754,3.352a1.756,1.756,0,0,1-1.754,1.754H31.3V81.05h.19A1.756,1.756,0,0,1,33.245,82.8Z" transform="translate(-15.978 -70.593)"/><path class="b" d="M112.323,3.828a.768.768,0,0,0,.768-.768V.768a.768.768,0,1,0-1.536,0V3.06A.768.768,0,0,0,112.323,3.828Z" transform="translate(-104.694)"/><path class="b" d="M178.453,12.257a.768.768,0,0,0,.768-.768V9.848a.768.768,0,0,0-1.537,0v1.64A.769.769,0,0,0,178.453,12.257Z" transform="translate(-166.076 -8.428)"/><path class="b" d="M48.127,12.257a.768.768,0,0,0,.768-.768V9.848a.768.768,0,0,0-1.536,0v1.64A.768.768,0,0,0,48.127,12.257Z" transform="translate(-45.106 -8.428)"/></g></g></g></svg>