<svg xmlns="http://www.w3.org/2000/svg" width="22.876" height="37.875" viewBox="0 0 22.876 37.875"><path d="M22.867,12.807A5.749,5.749,0,0,0,20.78,8.342L14.166,1.067a1.477,1.477,0,0,0-.186-.175,4.089,4.089,0,0,0-5.1,0,1.341,1.341,0,0,0-.189.174L2.116,8.316A5.814,5.814,0,0,0,0,12.815L.009,27.341H0l.007,7.291a3.249,3.249,0,0,0,3.246,3.243l2.905,0,.019,0,2.486,0h.063l1.553,0v.006l4.621-.009a1.517,1.517,0,1,0,0-3.033l-4.461.006v-.006l-2.763.006-3.47,0a1.192,1.192,0,0,1-1.158-1.192l-.009-4.52c0-.02.006-.038.006-.057l-.01-16.258a2.783,2.783,0,0,1,1.06-2.2,1.493,1.493,0,0,0,.181-.17l6.533-7.21a1.066,1.066,0,0,1,1.177-.062l6.607,7.267a1.522,1.522,0,0,0,.182.168,2.794,2.794,0,0,1,1.061,2.2l.008,13.611a1.182,1.182,0,0,1-1.135,1.13l-7.177,0a1.193,1.193,0,0,1-1.158-1.193l-.013-10.784a1.508,1.508,0,0,1,1.506-1.506h.088a1.508,1.508,0,0,1,1.506,1.505V19.8a1.517,1.517,0,0,0,3.034,0l0-4.226a4.543,4.543,0,0,0-4.541-4.539h-.087a4.543,4.543,0,0,0-4.539,4.541l.007,11.766a3.249,3.249,0,0,0,3.246,3.243l9.053,0a3.249,3.249,0,0,0,3.244-3.246Z" transform="translate(0 0)" fill="#d7df23"/></svg>