<svg xmlns="http://www.w3.org/2000/svg" xmlns:xlink="http://www.w3.org/1999/xlink" width="133.204" height="37.875" viewBox="0 0 133.204 37.875"><defs><clipPath id="a"><rect width="102.076" height="37.513" fill="#525252"/></clipPath></defs><g transform="translate(0)"><path d="M22.867,12.807A5.749,5.749,0,0,0,20.78,8.342L14.166,1.067a1.477,1.477,0,0,0-.186-.175,4.089,4.089,0,0,0-5.1,0,1.341,1.341,0,0,0-.189.174L2.116,8.316A5.814,5.814,0,0,0,0,12.815L.009,27.341H0l.007,7.291a3.249,3.249,0,0,0,3.246,3.243l2.905,0,.019,0,2.486,0h.063l1.553,0v.006l4.621-.009a1.517,1.517,0,1,0,0-3.033l-4.461.006v-.006l-2.763.006-3.47,0a1.192,1.192,0,0,1-1.158-1.192l-.009-4.52c0-.02.006-.038.006-.057l-.01-16.258a2.783,2.783,0,0,1,1.06-2.2,1.493,1.493,0,0,0,.181-.17l6.533-7.21a1.066,1.066,0,0,1,1.177-.062l6.607,7.267a1.522,1.522,0,0,0,.182.168,2.794,2.794,0,0,1,1.061,2.2l.008,13.611a1.182,1.182,0,0,1-1.135,1.13l-7.177,0a1.193,1.193,0,0,1-1.158-1.193l-.013-10.784a1.508,1.508,0,0,1,1.506-1.506h.088a1.508,1.508,0,0,1,1.506,1.505V19.8a1.517,1.517,0,0,0,3.034,0l0-4.226a4.543,4.543,0,0,0-4.541-4.539h-.087a4.543,4.543,0,0,0-4.539,4.541l.007,11.766a3.249,3.249,0,0,0,3.246,3.243l9.053,0a3.249,3.249,0,0,0,3.244-3.246Z" transform="translate(0 0)" fill="#d7df23"/><g transform="translate(31.128 0)"><g transform="translate(0 0)" clip-path="url(#a)"><path d="M4.107,77.472a4,4,0,0,1-.061.71,1.788,1.788,0,0,1-.207.583,1.089,1.089,0,0,1-.394.394,1.249,1.249,0,0,1-.637.146A1.154,1.154,0,0,1,2,79a1.411,1.411,0,0,1-.424-.765l-1.116.316a2.374,2.374,0,0,0,.813,1.31,2.436,2.436,0,0,0,1.6.51A2.427,2.427,0,0,0,4.1,80.093a2.123,2.123,0,0,0,.746-.7,2.677,2.677,0,0,0,.364-.922,4.953,4.953,0,0,0,.1-.946V71.562h-1.2Z" transform="translate(-0.273 -42.859)" fill="#525252"/><path d="M19.98,79.051a2.371,2.371,0,0,0-.875-.594,3.259,3.259,0,0,0-2.329.018,2.862,2.862,0,0,0-.949.625,2.82,2.82,0,0,0-.627.965,3.3,3.3,0,0,0-.225,1.232,3.208,3.208,0,0,0,.231,1.238,2.846,2.846,0,0,0,.631.953,2.809,2.809,0,0,0,.959.612,3.3,3.3,0,0,0,1.213.219,3.267,3.267,0,0,0,1.389-.289,2.863,2.863,0,0,0,1.086-.9l-.8-.643a2.064,2.064,0,0,1-.667.619,1.93,1.93,0,0,1-1.007.254,1.907,1.907,0,0,1-1.3-.5A1.783,1.783,0,0,1,16.3,82.3a1.7,1.7,0,0,1-.164-.681h4.575a1.577,1.577,0,0,0,.012-.194v-.195a3.734,3.734,0,0,0-.195-1.244,2.681,2.681,0,0,0-.554-.94m-3.839,1.723a1.655,1.655,0,0,1,.176-.638,1.823,1.823,0,0,1,.389-.515,1.771,1.771,0,0,1,.558-.345,1.833,1.833,0,0,1,.685-.128,1.75,1.75,0,0,1,.7.128,1.423,1.423,0,0,1,.5.345,1.469,1.469,0,0,1,.3.515,2.166,2.166,0,0,1,.115.638Z" transform="translate(-8.969 -46.864)" fill="#525252"/><path d="M43.168,75.469a2.069,2.069,0,0,0,.582-1.529,2.331,2.331,0,0,0-.243-1.11,2,2,0,0,0-.661-.734,2.9,2.9,0,0,0-.977-.407,5.269,5.269,0,0,0-1.177-.128H37.938v8.591h1.2V76.331h1.286l2.184,3.822h1.456l-2.4-3.944a2.711,2.711,0,0,0,1.5-.74m-2.646-.146H39.139V72.581h1.468a3.97,3.97,0,0,1,.74.067,1.84,1.84,0,0,1,.612.224,1.321,1.321,0,0,1,.419,1.717,1.238,1.238,0,0,1-.431.425,1.982,1.982,0,0,1-.637.236,4.028,4.028,0,0,1-.789.073" transform="translate(-22.721 -42.859)" fill="#525252"/><path d="M58.142,72.108l.91,1.2h1.1l-1.361-1.748H57.482L56.121,73.31h1.1Z" transform="translate(-33.611 -42.859)" fill="#525252"/><path d="M58.554,79.051a2.371,2.371,0,0,0-.875-.594,3.259,3.259,0,0,0-2.329.018,2.862,2.862,0,0,0-.949.625,2.82,2.82,0,0,0-.627.965A3.3,3.3,0,0,0,53.55,81.3a3.208,3.208,0,0,0,.231,1.238,2.846,2.846,0,0,0,.631.953,2.809,2.809,0,0,0,.959.612,3.3,3.3,0,0,0,1.213.219,3.267,3.267,0,0,0,1.389-.289,2.863,2.863,0,0,0,1.086-.9l-.8-.643a2.064,2.064,0,0,1-.667.619,1.93,1.93,0,0,1-1.007.254,1.907,1.907,0,0,1-1.3-.5,1.783,1.783,0,0,1-.407-.555,1.7,1.7,0,0,1-.164-.681H59.29a1.576,1.576,0,0,0,.012-.194v-.195a3.734,3.734,0,0,0-.195-1.244,2.681,2.681,0,0,0-.554-.94m-3.839,1.723a1.655,1.655,0,0,1,.176-.638,1.823,1.823,0,0,1,.389-.515,1.771,1.771,0,0,1,.558-.345,1.833,1.833,0,0,1,.685-.128,1.75,1.75,0,0,1,.7.128,1.423,1.423,0,0,1,.5.345,1.469,1.469,0,0,1,.3.515,2.165,2.165,0,0,1,.115.638Z" transform="translate(-32.071 -46.864)" fill="#525252"/><path d="M71.1,83.169H71.08l-1.687-4.526H68.132l2.342,5.752h1.238l2.305-5.752H72.8Z" transform="translate(-40.805 -47.099)" fill="#525252"/><path d="M88.112,79.051a2.371,2.371,0,0,0-.875-.594,3.259,3.259,0,0,0-2.329.018,2.862,2.862,0,0,0-.949.625,2.82,2.82,0,0,0-.627.965,3.3,3.3,0,0,0-.225,1.232,3.208,3.208,0,0,0,.231,1.238,2.846,2.846,0,0,0,.631.953,2.809,2.809,0,0,0,.959.612,3.3,3.3,0,0,0,1.213.219,3.267,3.267,0,0,0,1.389-.289,2.863,2.863,0,0,0,1.086-.9l-.8-.643a2.064,2.064,0,0,1-.667.619,1.93,1.93,0,0,1-1.007.254,1.907,1.907,0,0,1-1.3-.5,1.782,1.782,0,0,1-.407-.555,1.7,1.7,0,0,1-.164-.681h4.575a1.578,1.578,0,0,0,.012-.194v-.195a3.734,3.734,0,0,0-.195-1.244,2.681,2.681,0,0,0-.554-.94m-3.839,1.723a1.655,1.655,0,0,1,.176-.638,1.823,1.823,0,0,1,.389-.515,1.771,1.771,0,0,1,.558-.345,1.833,1.833,0,0,1,.685-.128,1.75,1.75,0,0,1,.7.128,1.423,1.423,0,0,1,.5.345,1.469,1.469,0,0,1,.3.515,2.165,2.165,0,0,1,.115.638Z" transform="translate(-49.774 -46.864)" fill="#525252"/><path d="M109.914,74.395h-.024a2.529,2.529,0,0,0-.825-.722,2.434,2.434,0,0,0-1.226-.3,2.938,2.938,0,0,0-1.177.23,2.682,2.682,0,0,0-.917.643,2.9,2.9,0,0,0-.588.964,3.346,3.346,0,0,0-.207,1.184,3.393,3.393,0,0,0,.207,1.189,2.92,2.92,0,0,0,.582.971,2.7,2.7,0,0,0,.91.649,2.937,2.937,0,0,0,1.2.237,2.69,2.69,0,0,0,1.184-.274,2.118,2.118,0,0,0,.892-.795h.024v.91h1.1V70.111h-1.141Zm-.067,2.807a2.055,2.055,0,0,1-.394.66,1.913,1.913,0,0,1-.613.453,1.843,1.843,0,0,1-2.214-.472,1.967,1.967,0,0,1-.364-.665,2.528,2.528,0,0,1,0-1.549,1.961,1.961,0,0,1,.364-.665,1.762,1.762,0,0,1,.594-.46,1.876,1.876,0,0,1,.825-.17,1.826,1.826,0,0,1,.795.17,1.88,1.88,0,0,1,.613.46,2.119,2.119,0,0,1,.394.665,2.28,2.28,0,0,1,0,1.573" transform="translate(-62.856 -41.99)" fill="#525252"/><rect width="0.995" height="3.034" transform="translate(49.691 28.703)" fill="#525252"/><path d="M135.042,83.156V78.642H133.9V81.7a2.1,2.1,0,0,1-.424,1.378,1.377,1.377,0,0,1-1.117.515,1.307,1.307,0,0,1-.655-.146,1.087,1.087,0,0,1-.4-.389,1.592,1.592,0,0,1-.2-.564,4.008,4.008,0,0,1-.055-.674V78.642h-1.141V82.21a3.153,3.153,0,0,0,.128.91,2.15,2.15,0,0,0,.388.746,1.778,1.778,0,0,0,.667.5,2.345,2.345,0,0,0,.965.183,2.123,2.123,0,0,0,1.147-.322,1.876,1.876,0,0,0,.734-.783h.024c0,.121,0,.273.012.455s.02.346.036.491h1.08q-.025-.279-.036-.643c-.008-.243-.012-.44-.012-.594" transform="translate(-77.803 -47.099)" fill="#525252"/><path d="M150.664,78.941a1.944,1.944,0,0,0-.667-.5,2.245,2.245,0,0,0-.959-.188,2.172,2.172,0,0,0-.606.085,2.119,2.119,0,0,0-.534.237,2.159,2.159,0,0,0-.431.352,1.684,1.684,0,0,0-.3.431h-.037c0-.121,0-.272-.012-.455s-.02-.346-.036-.491H146c.016.187.028.4.036.643s.012.441.012.595v4.514h1.141V81.1a2.08,2.08,0,0,1,.43-1.377,1.381,1.381,0,0,1,1.11-.516,1.311,1.311,0,0,1,.655.146,1.086,1.086,0,0,1,.4.389,1.61,1.61,0,0,1,.2.558,3.9,3.9,0,0,1,.055.667v3.191h1.141V80.591a3.154,3.154,0,0,0-.128-.91,2.038,2.038,0,0,0-.394-.74" transform="translate(-87.443 -46.864)" fill="#525252"/><path d="M173.942,76.27a1.986,1.986,0,0,0-.607-.43,2.5,2.5,0,0,0-.764-.213V75.6a2.105,2.105,0,0,0,1.093-.667,1.794,1.794,0,0,0,.412-1.2,2.048,2.048,0,0,0-.237-1.032,1.966,1.966,0,0,0-.619-.667,2.583,2.583,0,0,0-.868-.363,4.423,4.423,0,0,0-.971-.109h-2.961v8.591h2.828A5.019,5.019,0,0,0,172.5,80a3.231,3.231,0,0,0,1.026-.45,2.174,2.174,0,0,0,.691-.758,2.2,2.2,0,0,0,.255-1.079,2.258,2.258,0,0,0-.14-.813,1.878,1.878,0,0,0-.394-.631m-4.32-3.7h1.371a2.72,2.72,0,0,1,1.371.3,1.055,1.055,0,0,1,.51.989,1.257,1.257,0,0,1-.134.6,1.193,1.193,0,0,1-.364.412,1.6,1.6,0,0,1-.54.243,2.62,2.62,0,0,1-.649.079h-1.565Zm3.452,5.807a1.38,1.38,0,0,1-.5.455,2.225,2.225,0,0,1-.692.237,4.395,4.395,0,0,1-.758.067h-1.5V76.21h1.614a2.764,2.764,0,0,1,1.5.34,1.219,1.219,0,0,1,.522,1.1,1.289,1.289,0,0,1-.188.722" transform="translate(-100.869 -42.859)" fill="#525252"/><path d="M191.192,83.156V78.642h-1.141V81.7a2.1,2.1,0,0,1-.424,1.378,1.377,1.377,0,0,1-1.117.515,1.307,1.307,0,0,1-.655-.146,1.087,1.087,0,0,1-.4-.389,1.591,1.591,0,0,1-.2-.564,4.008,4.008,0,0,1-.055-.674V78.642h-1.141V82.21a3.153,3.153,0,0,0,.128.91,2.15,2.15,0,0,0,.388.746,1.778,1.778,0,0,0,.667.5,2.345,2.345,0,0,0,.965.183,2.123,2.123,0,0,0,1.147-.322,1.876,1.876,0,0,0,.734-.783h.024c0,.121,0,.273.012.455s.02.346.036.491h1.08q-.025-.279-.036-.643c-.008-.243-.012-.44-.012-.594" transform="translate(-111.432 -47.099)" fill="#525252"/><path d="M205.528,78.3a1.752,1.752,0,0,0-.449-.049,1.855,1.855,0,0,0-1.05.309,1.989,1.989,0,0,0-.71.819h-.036c0-.121,0-.276-.012-.467s-.02-.358-.036-.5h-1.081q.025.28.036.643c.008.243.012.441.012.594v4.514h1.141V81.137a2.5,2.5,0,0,1,.1-.7,1.725,1.725,0,0,1,.3-.589,1.472,1.472,0,0,1,.5-.407,1.583,1.583,0,0,1,.716-.151,2.166,2.166,0,0,1,.522.061Z" transform="translate(-121.072 -46.864)" fill="#525252"/><path d="M215.238,79.051a2.37,2.37,0,0,0-.875-.594,3.259,3.259,0,0,0-2.329.018,2.863,2.863,0,0,0-.949.625,2.82,2.82,0,0,0-.626.965,3.3,3.3,0,0,0-.225,1.232,3.208,3.208,0,0,0,.231,1.238,2.846,2.846,0,0,0,.631.953,2.808,2.808,0,0,0,.959.612,3.3,3.3,0,0,0,1.213.219,3.267,3.267,0,0,0,1.389-.289,2.863,2.863,0,0,0,1.086-.9l-.8-.643a2.064,2.064,0,0,1-.667.619,1.93,1.93,0,0,1-1.007.254,1.907,1.907,0,0,1-1.3-.5,1.783,1.783,0,0,1-.407-.555,1.7,1.7,0,0,1-.164-.681h4.575a1.576,1.576,0,0,0,.012-.194v-.195a3.734,3.734,0,0,0-.195-1.244,2.681,2.681,0,0,0-.554-.94M211.4,80.774a1.654,1.654,0,0,1,.176-.638,1.823,1.823,0,0,1,.389-.515,1.771,1.771,0,0,1,.558-.345,1.833,1.833,0,0,1,.685-.128,1.75,1.75,0,0,1,.7.128,1.424,1.424,0,0,1,.5.345,1.469,1.469,0,0,1,.3.515,2.166,2.166,0,0,1,.115.638Z" transform="translate(-125.911 -46.864)" fill="#525252"/><path d="M230.85,83.018V80.507a2.631,2.631,0,0,0-.146-.886,1.964,1.964,0,0,0-.437-.716,2.038,2.038,0,0,0-.746-.479,2.984,2.984,0,0,0-1.074-.175,3.711,3.711,0,0,0-1.317.23,3.068,3.068,0,0,0-1.037.631l.607.729a2.307,2.307,0,0,1,.722-.48,2.268,2.268,0,0,1,.916-.188,1.608,1.608,0,0,1,1.031.31,1.144,1.144,0,0,1,.388.953v.158q-.728,0-1.444.061a5.157,5.157,0,0,0-1.286.261,2.226,2.226,0,0,0-.922.582,1.471,1.471,0,0,0-.352,1.038,1.621,1.621,0,0,0,.2.837,1.669,1.669,0,0,0,.5.546,2.059,2.059,0,0,0,.673.3,3,3,0,0,0,.71.091,2.386,2.386,0,0,0,1.134-.254,2.2,2.2,0,0,0,.795-.716h.036a3.6,3.6,0,0,0,.1.825h1.032a3.074,3.074,0,0,1-.067-.528c-.012-.214-.018-.418-.018-.613m-1.093-1.3a1.739,1.739,0,0,1-.43,1.207,1.571,1.571,0,0,1-1.232.479,2.115,2.115,0,0,1-.424-.042,1.105,1.105,0,0,1-.376-.152.86.86,0,0,1-.273-.279.808.808,0,0,1-.1-.424.745.745,0,0,1,.243-.583,1.558,1.558,0,0,1,.613-.328,4.086,4.086,0,0,1,.825-.146q.455-.037.88-.036h.279Z" transform="translate(-135.205 -46.864)" fill="#525252"/><path d="M246.72,83.751c-.008-.243-.012-.44-.012-.594V78.643h-1.141V81.7a2.1,2.1,0,0,1-.425,1.378,1.375,1.375,0,0,1-1.117.515,1.309,1.309,0,0,1-.655-.146,1.087,1.087,0,0,1-.4-.389,1.605,1.605,0,0,1-.2-.564,4.047,4.047,0,0,1-.054-.674V78.643h-1.141V82.21a3.154,3.154,0,0,0,.128.91,2.146,2.146,0,0,0,.388.746,1.78,1.78,0,0,0,.667.5,2.344,2.344,0,0,0,.965.183,2.125,2.125,0,0,0,1.147-.322,1.874,1.874,0,0,0,.734-.783h.024c0,.122,0,.274.012.455s.02.345.036.491h1.08c-.016-.186-.028-.4-.036-.643" transform="translate(-144.681 -47.1)" fill="#525252"/><path d="M28.437,19.659h7.431a11.953,11.953,0,0,0,5.747-1.27,5.437,5.437,0,0,0,2.9-4.6c0-2.873-2.238-4.385-5.414-4.96,1.966-.393,4.325-1.906,4.325-4.416a3.888,3.888,0,0,0-1.845-3.357A8.9,8.9,0,0,0,36.624,0H27.429V1.119c2.148.152,2.541.423,2.541,2.964V15.607c0,2.364-.328,2.877-1.509,2.851-1.334-.1-2.116-1.408-2.568-1.919a13.537,13.537,0,0,1-1.487-2.2c-.907-1.391-2.086-3.357-2.541-4.264,2-.787,3.781-2.208,3.781-4.9A4.619,4.619,0,0,0,23.62,1.149C22.381.3,20.838,0,18.146,0H.605V1.119c2.329.212,2.631.423,2.631,2.964v9.86A37.108,37.108,0,0,1,2.9,19.75,4.5,4.5,0,0,1,0,23.47l.484,1.149a10.541,10.541,0,0,0,3.751-1.845c2.873-2.269,3.206-5.2,3.206-8.711V4.083c.009-2.28.7-2.914,2.194-2.941,1.614.036,2.319.839,2.311,2.88V15.607c0,2.45-.272,2.692-2.571,2.934v1.119H18.63V18.541c-2.269-.273-2.571-.484-2.571-2.934V11.191l.6.03a1.7,1.7,0,0,1,1.845,1,54.585,54.585,0,0,0,3.115,5.323c.908,1.271,1.81,2.117,6.813,2.117M19.84,9.164a4.443,4.443,0,0,1-2.964.787h-.817V2.722c0-.605.061-.968.273-1.15.181-.181.574-.3,1.391-.3,1.694,0,3.539,1.149,3.539,4.355A4.3,4.3,0,0,1,19.84,9.164M34.386,1.573a2.892,2.892,0,0,1,1.422-.242A3.268,3.268,0,0,1,39.195,4.96c0,2.238-1.058,3.478-3.932,3.478h-1.18V2.692c0-.635-.03-.907.3-1.119m2.329,16.786c-1.633.03-2.632-.635-2.632-2.813V9.739h1.059c3.387,0,4.869,1.391,4.869,4.325,0,2.813-1.634,4.265-3.3,4.295" transform="translate(0 0)" fill="#525252"/></g></g></g></svg>