<?xml version="1.0" encoding="utf-8"?>
<!-- Generator: Adobe Illustrator 24.0.1, SVG Export Plug-In . SVG Version: 6.00 Build 0)  -->
<svg version="1.1" id="Layer_1" xmlns="http://www.w3.org/2000/svg" xmlns:xlink="http://www.w3.org/1999/xlink" x="0px" y="0px"
	 viewBox="0 0 380.29 118.94" style="enable-background:new 0 0 380.29 118.94;" xml:space="preserve">
<style type="text/css">
	.st0{fill:#414042;}
	.st1{clip-path:url(#SVGID_2_);fill:#F1F2F2;}
	.st2{fill:#D7DF23;}
	.st3{clip-path:url(#SVGID_4_);fill:#C3CC39;}
	.st4{clip-path:url(#SVGID_6_);fill:#C3CC39;}
	.st5{fill:none;stroke:#ECECED;stroke-width:0.5;stroke-miterlimit:10;}
	.st6{fill:#FFFFFF;}
	.st7{fill:none;stroke:#FFFFFF;stroke-width:0.5;stroke-miterlimit:10;}
	.st8{fill:none;stroke:#ECECED;stroke-width:0.5;stroke-linecap:round;stroke-linejoin:round;stroke-miterlimit:10;}
	.st9{fill:#D1D3D4;}
	.st10{fill:#B3BA35;}
</style>
<g>
	<path class="st2" d="M68.48,45.19c0-4.31-1.89-8.33-5.12-10.96L47.12,16.37c-0.14-0.16-0.29-0.3-0.46-0.43
		c-3.69-2.92-8.84-2.92-12.51,0c-0.17,0.13-0.32,0.27-0.46,0.43l-16.15,17.8c-3.3,2.73-5.2,6.76-5.2,11.05l0.02,35.66h-0.02
		l0.02,17.9c0,4.39,3.58,7.96,7.97,7.96l7.13,0c0.02,0,0.03,0,0.05,0l6.1-0.01l0.16,0v0l3.81-0.01v0.01l11.35-0.02
		c2.05,0,3.72-1.67,3.72-3.72c0-2.05-1.67-3.72-3.72-3.72l-10.95,0.01v-0.01l-6.78,0.02l-8.52,0.01c-1.59-0.05-2.84-1.34-2.84-2.93
		l-0.02-11.1c0-0.05,0.01-0.09,0.01-0.14l-0.02-39.91c0-2.12,0.95-4.08,2.6-5.39c0.16-0.13,0.31-0.27,0.44-0.42l16.04-17.7
		c0.9-0.64,2.12-0.68,2.89-0.15l16.22,17.84c0.14,0.15,0.29,0.3,0.45,0.41c1.65,1.32,2.6,3.28,2.6,5.39l0.02,33.42
		c-0.08,1.53-1.29,2.72-2.79,2.77l-17.62,0.01c-1.59-0.06-2.84-1.34-2.84-2.93l-0.03-26.48c0-2.04,1.66-3.7,3.7-3.7h0.21
		c0.98,0,1.91,0.39,2.61,1.08c0.7,0.7,1.09,1.63,1.09,2.61l0,10.38c0,2.05,1.67,3.72,3.72,3.72c2.05,0,3.72-1.67,3.72-3.72l0-10.38
		c0-2.98-1.16-5.78-3.27-7.88c-2.11-2.1-4.9-3.26-7.88-3.26h-0.21c-2.97,0-5.77,1.16-7.88,3.27c-2.11,2.11-3.26,4.91-3.26,7.88
		l0.02,28.89c0,4.39,3.58,7.96,7.97,7.96l22.23-0.01c2.13,0,4.13-0.83,5.63-2.34c1.5-1.51,2.33-3.5,2.33-5.63L68.48,45.19z"/>
	<g>
		<path class="st0" d="M85.79,73.69h-5.18V63.25h5.18c5.23,0,9.06-1.32,11.48-3.96c2.42-2.64,3.63-6.86,3.63-12.65V13.67h10.43
			v32.97c0,9.24-2.17,16.05-6.51,20.45C100.48,71.49,94.13,73.69,85.79,73.69z"/>
		<path class="st0" d="M162.07,73.69h-14.61l-15.94-16.86c-1.89-1.95-2.84-3.81-2.84-5.59c0-1.61,0.54-2.85,1.63-3.71
			c1.09-0.86,2.63-1.35,4.63-1.46c5.51-0.39,9.63-1.52,12.35-3.38c2.73-1.86,4.09-4.6,4.09-8.22c0-3.45-1.04-6.04-3.13-7.76
			c-2.09-1.72-5.05-2.59-8.89-2.59h-11.52v49.58h-10.43V13.67h22.2c3.17,0,6.13,0.45,8.89,1.34c2.75,0.89,5.15,2.2,7.18,3.92
			c2.03,1.73,3.63,3.87,4.8,6.43c1.17,2.56,1.75,5.51,1.75,8.85c0,2-0.31,4.06-0.92,6.18c-0.61,2.11-1.64,4.09-3.09,5.93
			c-1.45,1.84-3.35,3.46-5.72,4.88c-2.37,1.42-5.3,2.41-8.8,2.96L162.07,73.69z"/>
		<path class="st0" d="M201.3,42.05c1.61,0.72,2.96,1.61,4.05,2.67c1.08,1.06,1.96,2.2,2.63,3.42c0.67,1.22,1.14,2.5,1.42,3.84
			c0.28,1.34,0.42,2.62,0.42,3.84c0,2.45-0.47,4.76-1.42,6.93c-0.95,2.17-2.41,4.06-4.38,5.68c-1.98,1.61-4.47,2.88-7.47,3.8
			c-3,0.92-6.57,1.38-10.68,1.38h-17.94V13.59h20.2c6.68,0,11.8,1.29,15.36,3.88c3.56,2.59,5.34,6.47,5.34,11.64
			c0,1.22-0.13,2.46-0.38,3.71c-0.25,1.25-0.67,2.45-1.25,3.59c-0.59,1.14-1.36,2.2-2.34,3.17S202.69,41.39,201.3,42.05z
			 M178.35,24.02v39.14h9.18c3.56,0,6.48-0.6,8.76-1.79c2.28-1.19,3.42-3.05,3.42-5.55c0-2.5-0.78-4.37-2.34-5.59
			c-1.56-1.22-3.48-1.84-5.76-1.84h-7.18V37.96h7.18c2.28,0,4.06-0.57,5.34-1.71c1.28-1.14,1.92-2.91,1.92-5.3
			c0-2.5-0.88-4.28-2.63-5.34s-4.66-1.59-8.72-1.59H178.35z"/>
	</g>
	<g>
		<path class="st0" d="M82.47,106.57h-1.85v-3.74h1.85c1.87,0,3.25-0.47,4.11-1.42c0.87-0.95,1.3-2.46,1.3-4.53V85.06h3.74v11.82
			c0,3.31-0.78,5.75-2.33,7.33C87.73,105.79,85.46,106.57,82.47,106.57z"/>
		<path class="st0" d="M104.45,106.57H93.8V85.06h10.5v3.74h-6.76v5h5.8v3.74h-5.8v5.3h6.91V106.57z"/>
		<path class="st0" d="M133.52,106.57h-5.24l-5.71-6.04c-0.68-0.7-1.02-1.37-1.02-2c0-0.58,0.19-1.02,0.58-1.33
			c0.39-0.31,0.94-0.48,1.66-0.52c1.97-0.14,3.45-0.54,4.43-1.21c0.98-0.67,1.47-1.65,1.47-2.95c0-1.24-0.37-2.16-1.12-2.78
			c-0.75-0.62-1.81-0.93-3.19-0.93h-4.13v17.77h-3.74V85.06h7.96c1.14,0,2.2,0.16,3.19,0.48c0.99,0.32,1.84,0.79,2.57,1.41
			c0.73,0.62,1.3,1.39,1.72,2.3c0.42,0.92,0.63,1.97,0.63,3.17c0,0.72-0.11,1.46-0.33,2.21c-0.22,0.76-0.59,1.47-1.11,2.12
			c-0.52,0.66-1.2,1.24-2.05,1.75c-0.85,0.51-1.9,0.86-3.16,1.06L133.52,106.57z"/>
		<path class="st0" d="M146.26,106.57h-10.65V85.06h10.5v3.74h-6.76v5h5.8v3.74h-5.8v5.3h6.91V106.57z M141.12,81.77l-1.47,1.94
			h-1.86l2.42-2.87h1.77l2.48,2.87h-1.89L141.12,81.77z"/>
		<path class="st0" d="M146.44,85.06h4.46l9.21,14.54V85.06h3.74v19.81c0,0.56-0.14,1.01-0.43,1.35c-0.29,0.34-0.67,0.51-1.15,0.51
			c-0.42,0-0.81-0.08-1.18-0.25s-0.69-0.45-0.97-0.85L146.44,85.06z"/>
		<path class="st0" d="M176.9,106.57h-10.65V85.06h10.5v3.74h-6.76v5h5.8v3.74h-5.8v5.3h6.91V106.57z"/>
		<path class="st0" d="M189.95,106.57V85.06h6.16c1.6,0,3.06,0.26,4.38,0.78c1.33,0.52,2.47,1.24,3.42,2.17
			c0.96,0.93,1.7,2.03,2.23,3.32c0.53,1.29,0.79,2.71,0.79,4.26s-0.27,3-0.81,4.34c-0.54,1.34-1.29,2.5-2.25,3.49
			c-0.96,0.99-2.1,1.76-3.42,2.32c-1.33,0.56-2.78,0.84-4.35,0.84H189.95z M193.69,88.8v14.03h2.42c1.06,0,2.02-0.17,2.9-0.52
			c0.88-0.35,1.63-0.83,2.24-1.45c0.62-0.62,1.1-1.35,1.44-2.2c0.34-0.85,0.51-1.77,0.51-2.77c0-1.02-0.17-1.96-0.52-2.83
			c-0.35-0.87-0.84-1.62-1.47-2.24c-0.63-0.63-1.38-1.12-2.24-1.48c-0.87-0.36-1.82-0.54-2.86-0.54H193.69z"/>
		<path class="st0" d="M208.56,90.12l0.9-6.58h3.74l-2.09,6.58H208.56z"/>
		<path class="st0" d="M231.89,85.06v11.82c0,3.09-0.72,5.48-2.17,7.16c-1.45,1.69-3.47,2.53-6.06,2.53h-0.72
			c-2.61,0-4.64-0.84-6.07-2.51c-1.43-1.68-2.15-4.07-2.15-7.18V85.06h3.74v11.82c0,1.12,0.08,2.05,0.25,2.81
			c0.17,0.76,0.43,1.37,0.79,1.84c0.36,0.47,0.82,0.8,1.39,1c0.57,0.2,1.25,0.3,2.05,0.3h0.72c0.78,0,1.45-0.1,2.02-0.31
			c0.57-0.21,1.04-0.54,1.41-1c0.37-0.46,0.64-1.07,0.81-1.82c0.17-0.76,0.25-1.7,0.25-2.81V85.06H231.89z"/>
		<path class="st0" d="M248.29,105.5l-10.53-13.85v14.93h-3.59V86.95c0-0.58,0.15-1.04,0.46-1.38c0.31-0.34,0.75-0.51,1.33-0.51
			c0.38,0,0.73,0.08,1.06,0.24c0.33,0.16,0.65,0.45,0.97,0.87l10.5,13.82V85.06h3.59v19.66c0,1.38-0.47,2.06-1.41,2.06
			c-0.46,0-0.86-0.11-1.21-0.31C249.12,106.26,248.73,105.94,248.29,105.5z"/>
		<path class="st0" d="M278.2,95.31c0.58,0.26,1.06,0.58,1.45,0.96c0.39,0.38,0.7,0.79,0.94,1.23c0.24,0.44,0.41,0.9,0.51,1.38
			c0.1,0.48,0.15,0.94,0.15,1.38c0,0.88-0.17,1.71-0.51,2.48c-0.34,0.78-0.86,1.46-1.57,2.03c-0.71,0.58-1.6,1.03-2.68,1.36
			c-1.08,0.33-2.35,0.49-3.83,0.49h-6.43V85.11h7.24c2.39,0,4.23,0.46,5.5,1.39c1.28,0.93,1.92,2.32,1.92,4.17
			c0,0.44-0.05,0.88-0.14,1.33c-0.09,0.45-0.24,0.88-0.45,1.29c-0.21,0.41-0.49,0.79-0.84,1.14
			C279.12,94.78,278.7,95.07,278.2,95.31z M269.97,88.85v14.03h3.29c1.27,0,2.32-0.21,3.14-0.64c0.82-0.43,1.23-1.09,1.23-1.99
			s-0.28-1.57-0.84-2c-0.56-0.44-1.25-0.66-2.06-0.66h-2.57v-3.74h2.57c0.82,0,1.45-0.2,1.91-0.61c0.46-0.41,0.69-1.04,0.69-1.9
			c0-0.9-0.31-1.54-0.94-1.91c-0.63-0.38-1.67-0.57-3.13-0.57H269.97z"/>
		<path class="st0" d="M300.4,85.14v11.82c0,3.09-0.72,5.48-2.17,7.16c-1.45,1.69-3.47,2.53-6.06,2.53h-0.72
			c-2.61,0-4.64-0.84-6.07-2.51c-1.43-1.68-2.15-4.07-2.15-7.18V85.14h3.74v11.82c0,1.12,0.08,2.05,0.25,2.81
			c0.17,0.76,0.43,1.37,0.79,1.84c0.36,0.47,0.82,0.8,1.39,1c0.57,0.2,1.25,0.3,2.05,0.3h0.72c0.78,0,1.45-0.1,2.02-0.31
			c0.57-0.21,1.04-0.54,1.41-1c0.37-0.46,0.64-1.07,0.81-1.82c0.17-0.76,0.25-1.7,0.25-2.81V85.14H300.4z"/>
		<path class="st0" d="M318.68,106.65h-5.24l-5.71-6.04c-0.68-0.7-1.02-1.37-1.02-2c0-0.58,0.19-1.02,0.58-1.33
			c0.39-0.31,0.94-0.48,1.66-0.52c1.98-0.14,3.45-0.54,4.43-1.21c0.98-0.67,1.47-1.65,1.47-2.95c0-1.24-0.37-2.16-1.12-2.78
			c-0.75-0.62-1.81-0.93-3.19-0.93h-4.13v17.77h-3.74V85.14h7.96c1.14,0,2.2,0.16,3.19,0.48c0.99,0.32,1.85,0.79,2.57,1.41
			c0.73,0.62,1.3,1.39,1.72,2.3c0.42,0.92,0.63,1.97,0.63,3.17c0,0.72-0.11,1.46-0.33,2.21c-0.22,0.76-0.59,1.47-1.11,2.12
			c-0.52,0.66-1.2,1.24-2.05,1.75c-0.85,0.51-1.9,0.86-3.16,1.06L318.68,106.65z"/>
		<path class="st0" d="M331.42,106.65h-10.65V85.14h10.5v3.74h-6.76v5h5.8v3.74h-5.8v5.3h6.91V106.65z"/>
		<path class="st0" d="M345.33,86.1c0.28-0.4,0.6-0.68,0.97-0.85c0.37-0.17,0.76-0.25,1.18-0.25c0.48,0,0.86,0.17,1.15,0.51
			c0.29,0.34,0.43,0.79,0.43,1.35v19.81h-3.74V92.11l-9.21,14.54h-4.46L345.33,86.1z"/>
		<path class="st0" d="M368.49,85.14v11.82c0,3.09-0.72,5.48-2.17,7.16c-1.45,1.69-3.47,2.53-6.06,2.53h-0.72
			c-2.61,0-4.64-0.84-6.07-2.51c-1.44-1.68-2.16-4.07-2.16-7.18V85.14h3.74v11.82c0,1.12,0.08,2.05,0.26,2.81
			c0.17,0.76,0.43,1.37,0.79,1.84c0.36,0.47,0.82,0.8,1.39,1c0.57,0.2,1.25,0.3,2.05,0.3h0.72c0.78,0,1.45-0.1,2.02-0.31
			c0.57-0.21,1.04-0.54,1.41-1c0.37-0.46,0.64-1.07,0.81-1.82c0.17-0.76,0.25-1.7,0.25-2.81V85.14H368.49z"/>
	</g>
</g>
</svg>
