<svg xmlns="http://www.w3.org/2000/svg" width="21.652" height="35.849" viewBox="0 0 21.652 35.849"><path d="M21.644,12.281a5.44,5.44,0,0,0-1.975-4.226l-6.26-6.886A1.421,1.421,0,0,0,13.233,1,3.871,3.871,0,0,0,8.409,1a1.286,1.286,0,0,0-.178.164L2,8.03a5.5,5.5,0,0,0-2,4.259L.008,26.038H0l.007,6.9a3.076,3.076,0,0,0,3.072,3.07l2.749,0,.018,0,2.353,0h.06l1.469,0v.005L14.1,36a1.436,1.436,0,0,0,0-2.871l-4.222.006v-.006l-2.616.006-3.285,0a1.128,1.128,0,0,1-1.1-1.128L2.874,27.73c0-.019.006-.036.006-.055L2.871,12.288a2.635,2.635,0,0,1,1-2.078,1.333,1.333,0,0,0,.171-.161l6.183-6.825a1.009,1.009,0,0,1,1.114-.058L17.6,10.044a1.44,1.44,0,0,0,.172.159,2.645,2.645,0,0,1,1,2.079l.008,12.883a1.118,1.118,0,0,1-1.075,1.069l-6.793,0a1.128,1.128,0,0,1-1.1-1.129L9.8,14.9a1.427,1.427,0,0,1,1.426-1.426h.083A1.428,1.428,0,0,1,12.739,14.9v4a1.436,1.436,0,1,0,2.871,0v-4a4.3,4.3,0,0,0-4.3-4.3H11.23a4.3,4.3,0,0,0-4.3,4.3l.007,11.137a3.075,3.075,0,0,0,3.072,3.07l8.569,0a3.074,3.074,0,0,0,3.07-3.072Z" transform="translate(0 -0.16)" fill="#e8e8e8"/></svg>