<?xml version="1.0" encoding="utf-8"?>
<!-- Generator: Adobe Illustrator 24.0.1, SVG Export Plug-In . SVG Version: 6.00 Build 0)  -->
<svg version="1.1" id="Layer_1" xmlns="http://www.w3.org/2000/svg" xmlns:xlink="http://www.w3.org/1999/xlink" x="0px" y="0px"
	 viewBox="0 0 80.22 118.94" style="enable-background:new 0 0 80.22 118.94;" xml:space="preserve">
<style type="text/css">
	.st0{fill:#414042;}
	.st1{clip-path:url(#SVGID_2_);fill:#F1F2F2;}
	.st2{fill:#D7DF23;}
	.st3{clip-path:url(#SVGID_4_);fill:#C3CC39;}
	.st4{clip-path:url(#SVGID_6_);fill:#C3CC39;}
	.st5{fill:none;stroke:#ECECED;stroke-width:0.5;stroke-miterlimit:10;}
	.st6{fill:#FFFFFF;}
	.st7{fill:none;stroke:#FFFFFF;stroke-width:0.5;stroke-miterlimit:10;}
	.st8{fill:none;stroke:#ECECED;stroke-width:0.5;stroke-linecap:round;stroke-linejoin:round;stroke-miterlimit:10;}
	.st9{fill:#D1D3D4;}
	.st10{fill:#B3BA35;}
</style>
<g>
	<path class="st2" d="M68.48,45.19c0-4.31-1.89-8.33-5.12-10.96L47.12,16.37c-0.14-0.16-0.29-0.3-0.46-0.43
		c-3.69-2.92-8.84-2.92-12.51,0c-0.17,0.13-0.32,0.27-0.46,0.43l-16.15,17.8c-3.3,2.73-5.2,6.76-5.2,11.05l0.02,35.66h-0.02
		l0.02,17.9c0,4.39,3.58,7.96,7.97,7.96l7.13,0c0.02,0,0.03,0,0.05,0l6.1-0.01l0.16,0v0l3.81-0.01v0.01l11.35-0.02
		c2.05,0,3.72-1.67,3.72-3.72c0-2.05-1.67-3.72-3.72-3.72l-10.95,0.01v-0.01l-6.78,0.02l-8.52,0.01c-1.59-0.05-2.84-1.34-2.84-2.93
		l-0.02-11.1c0-0.05,0.01-0.09,0.01-0.14l-0.02-39.91c0-2.12,0.95-4.08,2.6-5.39c0.16-0.13,0.31-0.27,0.44-0.42l16.04-17.7
		c0.9-0.64,2.12-0.68,2.89-0.15l16.22,17.84c0.14,0.15,0.29,0.3,0.45,0.41c1.65,1.32,2.6,3.28,2.6,5.39l0.02,33.42
		c-0.08,1.53-1.29,2.72-2.79,2.77l-17.62,0.01c-1.59-0.06-2.84-1.34-2.84-2.93l-0.03-26.48c0-2.04,1.66-3.7,3.7-3.7h0.21
		c0.98,0,1.91,0.39,2.61,1.08c0.7,0.7,1.09,1.63,1.09,2.61l0,10.38c0,2.05,1.67,3.72,3.72,3.72c2.05,0,3.72-1.67,3.72-3.72l0-10.38
		c0-2.98-1.16-5.78-3.27-7.88c-2.11-2.1-4.9-3.26-7.88-3.26h-0.21c-2.97,0-5.77,1.16-7.88,3.27c-2.11,2.11-3.26,4.91-3.26,7.88
		l0.02,28.89c0,4.39,3.58,7.96,7.97,7.96l22.23-0.01c2.13,0,4.13-0.83,5.63-2.34c1.5-1.51,2.33-3.5,2.33-5.63L68.48,45.19z"/>
</g>
</svg>
